<?xml version="1.0" encoding="UTF-8"?>
<svg version="1.1" xmlns="http://www.w3.org/2000/svg" width="3100" height="550">
<path d="M0 0 C165 0 330 0 500 0 C500 165 500 330 500 500 C335 500 170 500 0 500 C0 335 0 170 0 0 Z " fill="#0A2357" transform="translate(44,25)"/>
<path d="M0 0 C165 0 330 0 500 0 C500 165 500 330 500 500 C335 500 170 500 0 500 C0 335 0 170 0 0 Z M23 18 C23 170.79 23 323.58 23 481 C172.82 481 322.64 481 477 481 C477 328.21 477 175.42 477 18 C327.18 18 177.36 18 23 18 Z " fill="#0B2357" transform="translate(44,25)"/>
<path d="M0 0 C6.77992148 5.98171796 6.77992148 5.98171796 8.12890625 8.6796875 C8.45890625 2.7396875 8.78890625 -3.2003125 9.12890625 -9.3203125 C23.97890625 -9.3203125 38.82890625 -9.3203125 54.12890625 -9.3203125 C54.2194337 11.39515382 54.29301993 32.11045832 54.33615494 52.82607269 C54.35672156 62.44613257 54.38472841 72.0660602 54.43066406 81.68603516 C54.47071348 90.07734634 54.49638187 98.46856168 54.50526023 106.8599658 C54.51044453 111.29725235 54.52250428 115.73426487 54.55182648 120.17146301 C54.57928283 124.36085324 54.58729131 128.54986053 54.58133698 132.7393322 C54.58242388 134.26456227 54.59019594 135.7898072 54.60572815 137.31495857 C54.79256684 156.63354222 50.2359036 175.28311246 36.35546875 189.51171875 C35.62070313 190.22714844 34.8859375 190.94257813 34.12890625 191.6796875 C33.53851562 192.30230469 32.948125 192.92492187 32.33984375 193.56640625 C23.05000543 202.67208478 9.75171083 207.68751698 -2.87109375 209.6796875 C-3.62261719 209.80859375 -4.37414063 209.9375 -5.1484375 210.0703125 C-27.86471821 213.2852796 -52.92018252 209.49742073 -71.8203125 196.015625 C-86.02287804 185.14093333 -92.67204519 171.93771261 -95.87109375 154.6796875 C-95.87109375 154.0196875 -95.87109375 153.3596875 -95.87109375 152.6796875 C-80.69109375 152.6796875 -65.51109375 152.6796875 -49.87109375 152.6796875 C-48.22109375 155.6496875 -46.57109375 158.6196875 -44.87109375 161.6796875 C-37.81632507 167.92885454 -28.90266508 170.20030205 -19.66015625 170 C-11.99191653 169.11933381 -4.57016608 167.02744715 1.12890625 161.6796875 C9.76903066 149.35578912 8.38329137 133.98178414 8.12890625 119.6796875 C7.69457275 120.22197998 7.26023926 120.76427246 6.81274414 121.32299805 C-2.33125015 132.58078022 -14.04030096 138.56148985 -28.31640625 140.42578125 C-39.69330906 141.23841716 -50.19961446 139.82106953 -60.87109375 135.6796875 C-61.73089844 135.35355469 -62.59070312 135.02742187 -63.4765625 134.69140625 C-79.0791465 127.86992676 -89.56344517 112.95230008 -95.87109375 97.6796875 C-104.02960287 73.96594863 -103.60865615 46.52618576 -92.87109375 23.6796875 C-83.74917794 6.73572889 -70.80576428 -4.23815844 -52.51953125 -10.0703125 C-34.70897314 -14.47704853 -14.36293311 -11.60759492 0 0 Z M-47.87109375 40.6796875 C-54.840034 51.78331 -55.49811422 64.26935291 -53.29296875 77.0234375 C-50.64199248 85.41016242 -44.60883171 92.71855355 -37.05859375 97.2421875 C-28.83448452 100.95109951 -18.82643837 101.17900432 -10.37109375 97.9921875 C-1.1569609 93.64106921 3.31415512 86.84533283 7.44140625 77.8046875 C10.06489982 65.87971671 9.72206756 53.8723153 3.7265625 43 C-1.63031222 35.22008903 -8.71726329 30.75715257 -17.87109375 28.6796875 C-29.62811902 26.94058977 -40.27424949 31.740429 -47.87109375 40.6796875 Z " fill="#0A2357" transform="translate(2621.87109375,137.3203125)"/>
<path d="M0 0 C15.18 0 30.36 0 46 0 C46.33 21.12 46.66 42.24 47 64 C49.64 61.36 52.28 58.72 55 56 C67.81395933 46.03580146 84.37536721 43.80706236 100.125 45.625 C116.28987209 48.40703086 131.33644517 56.49974719 141 70 C155.08480883 91.6330213 158.47850881 117.21916572 153.97216797 142.57202148 C151.02301774 156.17562501 144.55629722 168.85899626 135 179 C134.33613281 179.70511719 133.67226563 180.41023437 132.98828125 181.13671875 C120.7186019 193.04352404 104.80074622 197.5078847 88.07739258 197.35180664 C72.05698824 196.89015574 59.21931222 191.58459215 48 180 C47.67 179.34 47.34 178.68 47 178 C46.67 183.61 46.34 189.22 46 195 C30.82 195 15.64 195 0 195 C0 130.65 0 66.3 0 0 Z M54 95 C46.56892877 105.66430174 43.85271695 116.15055053 45.625 129.125 C47.691112 139.46906399 52.16290176 147.05379747 61 153 C69.82837582 157.56240152 78.09224957 158.45039791 87.5625 155.5 C96.29154146 151.96887432 102.25186426 146.16305001 106.0703125 137.578125 C110.16259684 126.22977347 110.39392368 113.89336893 105.25 102.8125 C100.83386301 94.78904232 94.96440771 89.29708405 86.140625 86.38671875 C74.24301491 84.23733299 62.56232003 86.0484836 54 95 Z " fill="#0A2357" transform="translate(886,80)"/>
<path d="M0 0 C15.18 0 30.36 0 46 0 C46.33 21.12 46.66 42.24 47 64 C48.65 62.35 50.3 60.7 52 59 C62.62070332 49.49846757 76.28834192 45.58801744 90.3125 45.6875 C91.14064209 45.69241455 91.96878418 45.6973291 92.82202148 45.70239258 C108.7340206 46.00466631 120.93801274 51.63126786 132 63 C146.22360962 78.71755548 146.44168292 98.18749732 146.29296875 118.14453125 C146.28736353 120.36797294 146.28309781 122.59141837 146.28010559 124.81486511 C146.26872974 130.62629687 146.23932601 136.43749857 146.20599365 142.24884033 C146.16969598 149.24327084 146.15609702 156.23777889 146.13863373 163.23227692 C146.10968367 173.82167725 146.05214563 184.4105742 146 195 C131.15 195 116.3 195 101 195 C100.95101563 188.96847656 100.90203125 182.93695313 100.8515625 176.72265625 C100.8161558 172.8899577 100.78018415 169.05728099 100.7421875 165.22460938 C100.68199885 159.14806325 100.62384469 153.07154751 100.578125 146.99487305 C100.54111247 142.09293262 100.49471004 137.19116096 100.44193649 132.28936577 C100.42347709 130.42401544 100.40833832 128.55862904 100.39665604 126.69322395 C100.37964801 124.0701297 100.35057961 121.4474149 100.31884766 118.82446289 C100.31668747 118.0620076 100.31452728 117.29955231 100.31230164 116.51399231 C100.16816846 107.12017594 98.34534702 99.16454938 92 92 C83.68797157 85.40065796 75.19698703 85.27737887 65 86 C58.92107523 87.64488553 54.0592157 91.51463829 50.84375 96.95703125 C47.57388701 103.25151751 46.84516688 108.43989355 46.79467773 115.53222656 C46.78477814 116.39112488 46.77487854 117.25002319 46.76467896 118.13494873 C46.73312509 120.97014624 46.70833068 123.8053605 46.68359375 126.640625 C46.66301895 128.60789421 46.64202233 130.57515905 46.62062073 132.54241943 C46.56545445 137.71761535 46.51602115 142.89285081 46.46777344 148.06811523 C46.4086813 154.27898478 46.34248327 160.48978215 46.27747345 166.70059204 C46.17953242 176.1336839 46.09062947 185.56682229 46 195 C30.82 195 15.64 195 0 195 C0 130.65 0 66.3 0 0 Z " fill="#0A2357" transform="translate(1777,80)"/>
<path d="M0 0 C17.16 0 34.32 0 52 0 C54.866875 7.858125 57.73375 15.71625 60.6875 23.8125 C69.20669323 47.13742391 69.20669323 47.13742391 77.79263306 70.43783569 C78.3467825 71.93555282 78.89998764 73.43361968 79.45223999 74.93203735 C80.20758286 76.98046824 80.96646723 79.02754742 81.7265625 81.07421875 C82.14502441 82.20432373 82.56348633 83.33442871 82.99462891 84.4987793 C83.77021256 86.90100354 83.77021256 86.90100354 85 88 C85.19441681 87.47050751 85.38883362 86.94101501 85.58914185 86.39547729 C86.54116742 83.80270253 87.49323391 81.2099428 88.4453125 78.6171875 C88.80733261 77.63130646 89.16935272 76.64542542 89.54234314 75.62966919 C91.55416224 70.15130102 93.5665357 64.67313725 95.57983398 59.1953125 C96.40869184 56.94010433 97.23754926 54.68489599 98.06640625 52.4296875 C98.48153976 51.30020691 98.89667328 50.17072632 99.3243866 49.00701904 C101.64008307 42.70525894 103.9524688 36.40230367 106.26037598 30.09768677 C107.55656462 26.55775062 108.85482398 23.01857623 110.15350342 19.47955322 C110.75918919 17.82736867 111.36388607 16.17482125 111.96759033 14.52191162 C112.80011048 12.24284797 113.63596957 9.96503667 114.47265625 7.6875 C114.71660629 7.01695587 114.96055634 6.34641174 115.2118988 5.6555481 C116.88600464 1.11399536 116.88600464 1.11399536 118 0 C119.5348297 -0.09319449 121.07392082 -0.117458 122.61157227 -0.11352539 C123.59251358 -0.11344986 124.5734549 -0.11337433 125.5841217 -0.11329651 C126.6507756 -0.10813522 127.7174295 -0.10297394 128.81640625 -0.09765625 C130.44569313 -0.09553383 130.44569313 -0.09553383 132.1078949 -0.09336853 C135.59279075 -0.08775048 139.07762342 -0.07519492 142.5625 -0.0625 C144.91861887 -0.05748733 147.27473874 -0.05292402 149.63085938 -0.04882812 C155.42059464 -0.03777519 161.21029281 -0.02101951 167 0 C166.39818518 5.43040462 164.53241741 9.86530519 162.34375 14.8046875 C161.78307579 16.09263466 161.78307579 16.09263466 161.21107483 17.40660095 C160.40308112 19.26083482 159.59206432 21.11375369 158.77835083 22.96548462 C157.03483897 26.93370245 155.30633833 30.9083993 153.57704163 34.88282776 C152.68562242 36.93134947 151.79347496 38.97955443 150.90061951 41.02745056 C146.73005045 50.59809861 142.63524349 60.19989975 138.5625 69.8125 C137.87116346 71.44257514 137.17975663 73.07262047 136.48828125 74.70263672 C135.43022726 77.19699662 134.37228355 79.69140294 133.31472778 82.18597412 C129.31208372 91.6264904 125.29534069 101.0610007 121.27893066 110.4956665 C112.90785431 130.16014542 104.545401 149.8282814 96.18754578 169.49838257 C91.93817886 179.49919725 87.68777472 189.4995711 83.4375 199.5 C80.983125 205.275 78.52875 211.05 76 217 C59.5 217 43 217 26 217 C27.51846017 212.44461949 29.18483265 208.21031602 31.203125 203.8828125 C31.85432199 202.47171381 32.50544166 201.06057943 33.15649414 199.64941406 C33.49810577 198.91178833 33.83971741 198.1741626 34.19168091 197.41418457 C35.99754237 193.50803733 37.78517581 189.59355924 39.57421875 185.6796875 C40.31428583 184.06087032 41.05435745 182.44205522 41.79443359 180.82324219 C42.1600238 180.02333862 42.52561401 179.22343506 42.90228271 178.39929199 C43.97917606 176.0455151 45.0590662 173.69312987 46.13916016 171.34082031 C47.81873488 167.67747582 49.47926201 164.00601692 51.12658691 160.32806396 C51.74644331 158.95175962 52.37243208 157.57819943 53.00476074 156.20758057 C53.8853854 154.29631411 54.74381883 152.37647719 55.59765625 150.453125 C56.08758057 149.37192383 56.57750488 148.29072266 57.08227539 147.17675781 C59.08263921 140.25238058 56.14816958 134.34349167 53.4140625 128.0546875 C53.0456575 127.18871948 52.6772525 126.32275146 52.29768372 125.43054199 C51.08106062 122.57537975 49.85294505 119.72530892 48.625 116.875 C47.76351454 114.85796442 46.90293403 112.84054212 46.04321289 110.82275391 C44.25550338 106.62900604 42.46390709 102.43695162 40.66943359 98.24609375 C36.55818089 88.63675376 32.49907958 79.0054108 28.4375 69.375 C27.65792481 67.52789349 26.87830241 65.6808069 26.09863281 63.83374023 C23.73074111 58.22320155 21.36507347 52.61172716 19 47 C18.58030945 46.00446106 18.1606189 45.00892212 17.72821045 43.98321533 C15.17664596 37.92975815 12.6286018 31.87483858 10.0852356 25.81793213 C9.28452846 23.91220189 8.4828467 22.00688083 7.68014526 20.10198975 C6.57306466 17.47409086 5.46964882 14.84468321 4.3671875 12.21484375 C4.03899521 11.43790665 3.71080292 10.66096954 3.37266541 9.86048889 C1.99912313 6.57413549 0.86630996 3.46523986 0 0 Z " fill="#0A2357" transform="translate(1045,128)"/>
<path d="M0 0 C13.27126125 12.24048368 20.17454359 30.50794178 20.91308594 48.31005859 C21.08958619 55.0532362 21.15306958 61.52371462 19.82421875 68.16796875 C-13.50578125 68.16796875 -46.83578125 68.16796875 -81.17578125 68.16796875 C-78.02640749 79.71567252 -76.16712389 86.03602709 -66.17578125 92.16796875 C-60.01245607 95.24963134 -52.21498869 95.19467749 -45.609375 93.515625 C-39.50245717 91.10799073 -35.12028805 87.05698235 -32.17578125 81.16796875 C-16.00578125 81.16796875 0.16421875 81.16796875 16.82421875 81.16796875 C14.63555639 96.48860529 6.02295376 108.41017482 -5.64453125 118.25 C-18.09544283 127.52754613 -32.76143918 132.34587051 -48.17578125 133.16796875 C-48.86671875 133.20921875 -49.55765625 133.25046875 -50.26953125 133.29296875 C-69.83459962 133.87700064 -89.84247727 128.15654946 -104.48828125 114.91796875 C-118.95016497 101.20132552 -126.6739073 83.37181699 -127.45703125 63.48046875 C-128.00509639 39.31786157 -123.10406056 17.87611766 -106.06640625 -0.15625 C-97.1228163 -8.43511367 -86.88155742 -13.50350708 -75.17578125 -16.83203125 C-74.33402344 -17.07695313 -73.49226563 -17.321875 -72.625 -17.57421875 C-46.83773064 -23.57890986 -20.0071495 -16.8462354 0 0 Z M-74.17578125 26.16796875 C-78.74582535 32.46298047 -80.1702793 36.12395315 -81.17578125 44.16796875 C-63.02578125 44.16796875 -44.87578125 44.16796875 -26.17578125 44.16796875 C-27.11829621 35.68533411 -27.85084383 31.46398694 -33.17578125 25.16796875 C-45.10274436 15.88935493 -63.06547869 14.44042716 -74.17578125 26.16796875 Z " fill="#0A2357" transform="translate(2898.17578125,144.83203125)"/>
<path d="M0 0 C13.27126125 12.24048368 20.17454359 30.50794178 20.91308594 48.31005859 C21.08958619 55.0532362 21.15306958 61.52371462 19.82421875 68.16796875 C-13.50578125 68.16796875 -46.83578125 68.16796875 -81.17578125 68.16796875 C-78.02640749 79.71567252 -76.16712389 86.03602709 -66.17578125 92.16796875 C-60.01245607 95.24963134 -52.21498869 95.19467749 -45.609375 93.515625 C-39.50245717 91.10799073 -35.12028805 87.05698235 -32.17578125 81.16796875 C-16.00578125 81.16796875 0.16421875 81.16796875 16.82421875 81.16796875 C14.63555639 96.48860529 6.02295376 108.41017482 -5.64453125 118.25 C-18.09544283 127.52754613 -32.76143918 132.34587051 -48.17578125 133.16796875 C-48.86671875 133.20921875 -49.55765625 133.25046875 -50.26953125 133.29296875 C-69.83459962 133.87700064 -89.84247727 128.15654946 -104.48828125 114.91796875 C-118.95016497 101.20132552 -126.6739073 83.37181699 -127.45703125 63.48046875 C-128.00509639 39.31786157 -123.10406056 17.87611766 -106.06640625 -0.15625 C-97.1228163 -8.43511367 -86.88155742 -13.50350708 -75.17578125 -16.83203125 C-74.33402344 -17.07695313 -73.49226563 -17.321875 -72.625 -17.57421875 C-46.83773064 -23.57890986 -20.0071495 -16.8462354 0 0 Z M-74.17578125 26.16796875 C-78.74582535 32.46298047 -80.1702793 36.12395315 -81.17578125 44.16796875 C-63.02578125 44.16796875 -44.87578125 44.16796875 -26.17578125 44.16796875 C-27.11829621 35.68533411 -27.85084383 31.46398694 -33.17578125 25.16796875 C-45.10274436 15.88935493 -63.06547869 14.44042716 -74.17578125 26.16796875 Z " fill="#0A2357" transform="translate(1580.17578125,144.83203125)"/>
<path d="M0 0 C1.64020239 1.27230653 3.26604084 2.56340623 4.875 3.875 C5.72191406 4.52726562 6.56882812 5.17953125 7.44140625 5.8515625 C20.73033413 16.90078344 27.9192055 35.10618799 29.875 51.875 C31.16470365 76.25512048 26.7699768 96.81550099 10.8125 116 C-3.24417053 131.03681252 -23.71981034 137.88126321 -43.8449707 138.80029297 C-63.40335574 139.36148142 -83.29477421 134.68589259 -98.3125 121.5625 C-99.93264781 120.01657697 -101.53755937 118.45449017 -103.125 116.875 C-104.17494141 115.87726563 -104.17494141 115.87726563 -105.24609375 114.859375 C-119.80683122 99.98641899 -123.73792652 79.60758586 -123.5300293 59.55566406 C-122.9733903 39.50382694 -115.90508317 19.96091096 -101.125 5.875 C-73.80041027 -16.94601234 -29.67009377 -21.35769485 0 0 Z M-69.65625 36.91015625 C-75.42038396 44.62121843 -76.32302543 52.69655195 -76.375 62 C-76.395625 62.89976562 -76.41625 63.79953125 -76.4375 64.7265625 C-76.5003546 75.66326246 -73.72728113 83.92716064 -66.125 91.875 C-59.85909243 97.55867722 -53.05690994 99.36293535 -44.6640625 99.109375 C-35.36522137 98.25102043 -29.24490761 93.82798404 -23.125 86.875 C-15.8869717 75.69497917 -15.5435291 62.15229107 -17.73828125 49.27734375 C-20.3707152 40.28995912 -25.63535629 33.60895166 -33.6875 28.8125 C-46.65637943 23.07741772 -60.28911334 26.81397358 -69.65625 36.91015625 Z " fill="#0A2357" transform="translate(2479.125,139.125)"/>
<path d="M0 0 C1.64020239 1.27230653 3.26604084 2.56340623 4.875 3.875 C5.72191406 4.52726562 6.56882812 5.17953125 7.44140625 5.8515625 C20.73033413 16.90078344 27.9192055 35.10618799 29.875 51.875 C31.16470365 76.25512048 26.7699768 96.81550099 10.8125 116 C-3.24417053 131.03681252 -23.71981034 137.88126321 -43.8449707 138.80029297 C-63.40335574 139.36148142 -83.29477421 134.68589259 -98.3125 121.5625 C-99.93264781 120.01657697 -101.53755937 118.45449017 -103.125 116.875 C-104.17494141 115.87726563 -104.17494141 115.87726563 -105.24609375 114.859375 C-119.80683122 99.98641899 -123.73792652 79.60758586 -123.5300293 59.55566406 C-122.9733903 39.50382694 -115.90508317 19.96091096 -101.125 5.875 C-73.80041027 -16.94601234 -29.67009377 -21.35769485 0 0 Z M-69.65625 36.91015625 C-75.42038396 44.62121843 -76.32302543 52.69655195 -76.375 62 C-76.395625 62.89976562 -76.41625 63.79953125 -76.4375 64.7265625 C-76.5003546 75.66326246 -73.72728113 83.92716064 -66.125 91.875 C-59.85909243 97.55867722 -53.05690994 99.36293535 -44.6640625 99.109375 C-35.36522137 98.25102043 -29.24490761 93.82798404 -23.125 86.875 C-15.8869717 75.69497917 -15.5435291 62.15229107 -17.73828125 49.27734375 C-20.3707152 40.28995912 -25.63535629 33.60895166 -33.6875 28.8125 C-46.65637943 23.07741772 -60.28911334 26.81397358 -69.65625 36.91015625 Z " fill="#0A2357" transform="translate(2240.125,139.125)"/>
<path d="M0 0 C10.54213345 12.42898492 15.17645033 26.62430595 15.11352539 42.83911133 C15.11367142 43.82495209 15.11381744 44.81079285 15.1139679 45.82650757 C15.11327237 49.07837134 15.10549681 52.33017751 15.09765625 55.58203125 C15.09579079 57.83932972 15.09436749 60.09662859 15.09336853 62.35392761 C15.08955343 68.29032512 15.07973172 74.22669811 15.06866455 80.16308594 C15.05662863 87.2883529 15.05204339 94.41362806 15.04621124 101.53890228 C15.03651945 112.35928524 15.01735581 123.17961439 15 134 C0.15 134 -14.7 134 -30 134 C-30.03738281 127.91949219 -30.07476563 121.83898437 -30.11328125 115.57421875 C-30.14358367 111.70505065 -30.17474641 107.83592728 -30.20898438 103.96679688 C-30.26315859 97.83555448 -30.31427419 91.70440058 -30.34643555 85.57299805 C-30.37258663 80.62560391 -30.4130714 75.67850962 -30.46318626 70.73130226 C-30.47977552 68.85086633 -30.49133895 66.97037863 -30.49761391 65.08987999 C-30.21636374 47.31706995 -30.21636374 47.31706995 -37.41015625 31.5 C-43.97871806 25.30263456 -51.3916256 23.67282458 -60.12109375 23.7890625 C-66.99218167 24.29250721 -72.4439089 26.5533816 -77.49609375 31.25390625 C-83.22513907 37.90555108 -84.14558526 45.1355674 -84.20532227 53.62402344 C-84.21522186 54.49267532 -84.22512146 55.36132721 -84.23532104 56.25630188 C-84.26687728 59.12396531 -84.29167027 61.9916453 -84.31640625 64.859375 C-84.33698085 66.84906441 -84.35797745 68.83874949 -84.37937927 70.82843018 C-84.43454768 76.06281024 -84.48398005 81.29722941 -84.53222656 86.53167725 C-84.59131675 92.81346409 -84.65751595 99.09517953 -84.72252655 105.37690735 C-84.82047026 114.91789459 -84.90937138 124.45892783 -85 134 C-100.18 134 -115.36 134 -131 134 C-131 85.16 -131 36.32 -131 -14 C-115.82 -14 -100.64 -14 -85 -14 C-84.505 -6.08 -84.505 -6.08 -84 2 C-83.05125 0.96875 -82.1025 -0.0625 -81.125 -1.125 C-59.44481393 -22.58838421 -21.57312655 -20.19619517 0 0 Z " fill="#0A2357" transform="translate(2082,142)"/>
<path d="M0 0 C0.5465625 0.48726562 1.093125 0.97453125 1.65625 1.4765625 C2.2440625 1.98445313 2.831875 2.49234375 3.4375 3.015625 C12.78195195 11.6633415 19.03605059 23.80416855 21.72143555 36.17138672 C21.89764938 36.97857147 22.07386322 37.78575623 22.25541687 38.61740112 C22.45382927 39.537686 22.45382927 39.537686 22.65625 40.4765625 C15.78841267 40.70511419 8.92155757 40.86250698 2.05078125 40.97094727 C-0.28520346 41.01615674 -2.62093419 41.07753855 -4.95605469 41.15551758 C-8.31769395 41.26494966 -11.67596486 41.31578123 -15.0390625 41.35546875 C-16.60033371 41.4251461 -16.60033371 41.4251461 -18.19314575 41.49623108 C-21.16817539 41.49829353 -23.5131839 41.40144568 -26.34375 40.4765625 C-28.42834933 38.35969924 -29.75233754 36.32082796 -31.14181519 33.70127869 C-33.57703818 29.19381294 -37.00935658 26.98605817 -41.78125 25.1640625 C-49.6818464 23.639386 -56.34979829 24.54011889 -63.296875 28.625 C-69.58066062 33.35149962 -72.75222808 40.91469194 -74.34375 48.4765625 C-74.59180321 52.18157552 -74.57495257 55.88907054 -74.59375 59.6015625 C-74.614375 60.59671875 -74.635 61.591875 -74.65625 62.6171875 C-74.71024403 72.95704441 -72.57031994 82.71525694 -65.34375 90.4765625 C-58.61604248 95.60928767 -51.60501141 96.55005974 -43.34375 95.4765625 C-38.65126191 94.27775167 -34.75653797 91.88935047 -31.34375 88.4765625 C-29.69375 85.5065625 -28.04375 82.5365625 -26.34375 79.4765625 C-10.17375 79.4765625 5.99625 79.4765625 22.65625 79.4765625 C19.12234681 93.61217528 19.12234681 93.61217528 16.03125 99.6015625 C15.68642578 100.27823975 15.34160156 100.95491699 14.98632812 101.65209961 C11.73090967 107.7779263 7.66761005 112.67959219 2.65625 117.4765625 C2.06714844 118.09660156 1.47804688 118.71664062 0.87109375 119.35546875 C-12.59782117 132.58756759 -31.82654153 136.3004555 -49.98046875 136.49951172 C-70.92121082 136.29616154 -88.41460374 129.10257889 -103.34375 114.4765625 C-104.28541016 113.58904297 -104.28541016 113.58904297 -105.24609375 112.68359375 C-119.57733903 97.96238261 -122.95393201 76.84056838 -122.7487793 57.17675781 C-122.1751217 36.59121192 -115.49169802 18.24205538 -101.234375 3.15234375 C-92.29078505 -5.12651992 -82.04952617 -10.19491333 -70.34375 -13.5234375 C-69.50199219 -13.76835938 -68.66023438 -14.01328125 -67.79296875 -14.265625 C-44.78395231 -19.6233864 -18.41291157 -15.10181782 0 0 Z " fill="#0A2357" transform="translate(1734.34375,141.5234375)"/>
<path d="M0 0 C10.8531691 9.32013719 17.81754268 21.0065473 19.75 35.3125 C19.75 36.6325 19.75 37.9525 19.75 39.3125 C5.56 39.3125 -8.63 39.3125 -23.25 39.3125 C-24.24 36.3425 -25.23 33.3725 -26.25 30.3125 C-30.78724136 25.11357761 -34.6520406 23.3418641 -41.46875 22.43359375 C-47.29459108 22.17994056 -51.50884821 23.10435386 -56.3125 26.4375 C-58.4806689 29.65478288 -58.86712004 31.47521266 -59.01171875 35.25 C-57.75262842 38.65922921 -55.25806869 40.48472472 -52.25 42.3125 C-49.1304382 43.5804162 -45.9475833 44.4207097 -42.6875 45.25 C-41.77073486 45.49959473 -40.85396973 45.74918945 -39.90942383 46.00634766 C-36.10569136 47.04122242 -32.29311506 48.04069465 -28.47851562 49.03466797 C6.51053521 58.2101624 6.51053521 58.2101624 15.296875 72.8984375 C20.8787381 83.59178198 21.714329 96.28584529 18.84375 108.015625 C17.67031493 110.94921268 16.35983522 113.59644111 14.75 116.3125 C14.35039062 117.03308594 13.95078125 117.75367188 13.5390625 118.49609375 C6.35874594 129.65822222 -6.87140761 135.31544508 -19.25 138.3125 C-41.70154575 142.81062227 -65.04714012 140.33380011 -84.67578125 128.04296875 C-85.52527344 127.47191406 -86.37476562 126.90085937 -87.25 126.3125 C-87.90355469 125.87550781 -88.55710937 125.43851563 -89.23046875 124.98828125 C-98.79906134 117.69688232 -105.06431778 105.94399771 -107.25 94.3125 C-107.25 92.3325 -107.25 90.3525 -107.25 88.3125 C-92.4 88.3125 -77.55 88.3125 -62.25 88.3125 C-60.93 91.6125 -59.61 94.9125 -58.25 98.3125 C-53.77811747 102.9788122 -49.45234227 105.013252 -43.03125 105.61328125 C-35.91648272 105.63869113 -30.86810205 105.56879185 -25.375 100.625 C-23.692422 97.16636745 -23.46456055 94.07638805 -24.25 90.3125 C-30.98674919 81.94963893 -47.22778831 80.36917617 -57.1315918 77.88793945 C-71.84978047 74.18288175 -88.36985298 69.68686777 -97.25 56.3125 C-102.82357027 45.77273571 -104.2690231 33.55189122 -101.125 21.9375 C-96.51708242 9.12576654 -88.28171957 0.39892705 -76.25 -5.6875 C-53.40049421 -15.90612062 -20.45798063 -15.46822926 0 0 Z " fill="#0A2357" transform="translate(3038.25,137.6875)"/>
<path d="M0 0 C10.8531691 9.32013719 17.81754268 21.0065473 19.75 35.3125 C19.75 36.6325 19.75 37.9525 19.75 39.3125 C5.56 39.3125 -8.63 39.3125 -23.25 39.3125 C-24.24 36.3425 -25.23 33.3725 -26.25 30.3125 C-30.78724136 25.11357761 -34.6520406 23.3418641 -41.46875 22.43359375 C-47.29459108 22.17994056 -51.50884821 23.10435386 -56.3125 26.4375 C-58.4806689 29.65478288 -58.86712004 31.47521266 -59.01171875 35.25 C-57.75262842 38.65922921 -55.25806869 40.48472472 -52.25 42.3125 C-49.1304382 43.5804162 -45.9475833 44.4207097 -42.6875 45.25 C-41.77073486 45.49959473 -40.85396973 45.74918945 -39.90942383 46.00634766 C-36.10569136 47.04122242 -32.29311506 48.04069465 -28.47851562 49.03466797 C6.51053521 58.2101624 6.51053521 58.2101624 15.296875 72.8984375 C20.8787381 83.59178198 21.714329 96.28584529 18.84375 108.015625 C17.67031493 110.94921268 16.35983522 113.59644111 14.75 116.3125 C14.35039063 117.03308594 13.95078125 117.75367188 13.5390625 118.49609375 C6.35874594 129.65822222 -6.87140761 135.31544508 -19.25 138.3125 C-41.70154575 142.81062227 -65.04714012 140.33380011 -84.67578125 128.04296875 C-85.52527344 127.47191406 -86.37476563 126.90085937 -87.25 126.3125 C-87.90355469 125.87550781 -88.55710937 125.43851563 -89.23046875 124.98828125 C-98.79906134 117.69688232 -105.06431778 105.94399771 -107.25 94.3125 C-107.25 92.3325 -107.25 90.3525 -107.25 88.3125 C-92.4 88.3125 -77.55 88.3125 -62.25 88.3125 C-60.93 91.6125 -59.61 94.9125 -58.25 98.3125 C-53.77811747 102.9788122 -49.45234227 105.013252 -43.03125 105.61328125 C-35.91648272 105.63869113 -30.86810205 105.56879185 -25.375 100.625 C-23.692422 97.16636745 -23.46456055 94.07638805 -24.25 90.3125 C-30.98674919 81.94963893 -47.22778831 80.36917617 -57.1315918 77.88793945 C-71.84978047 74.18288175 -88.36985298 69.68686777 -97.25 56.3125 C-102.82357027 45.77273571 -104.2690231 33.55189122 -101.125 21.9375 C-96.51708242 9.12576654 -88.28171957 0.39892705 -76.25 -5.6875 C-53.40049421 -15.90612062 -20.45798063 -15.46822926 0 0 Z " fill="#0A2357" transform="translate(767.25,137.6875)"/>
<path d="M0 0 C15.18 0 30.36 0 46 0 C46 11.88 46 23.76 46 36 C55.57 36 65.14 36 75 36 C75 48.54 75 61.08 75 74 C65.43 74 55.86 74 46 74 C46.0326186 85.25322916 46.0326186 85.25322916 46.11132812 96.50585938 C46.15366745 101.09698652 46.19066247 105.68771307 46.19555664 110.27905273 C46.19984225 113.98174943 46.22832454 117.68354882 46.27343178 121.38596535 C46.28639877 122.79686057 46.29071721 124.20786323 46.28615379 125.61881065 C46.28124337 127.59840848 46.31022294 129.57800184 46.34057617 131.55737305 C46.35056892 133.24614815 46.35056892 133.24614815 46.36076355 134.96903992 C47.20056644 138.95099217 48.88707624 140.4651245 52 143 C54.67897159 143.76489113 54.67897159 143.76489113 57.51953125 143.70703125 C58.44096924 143.73514893 59.36240723 143.7632666 60.31176758 143.79223633 C61.46700928 143.79892334 62.62225098 143.80561035 63.8125 143.8125 C67.504375 143.874375 71.19625 143.93625 75 144 C75 157.2 75 170.4 75 184 C30.9490085 184.25912348 30.9490085 184.25912348 12.8125 171.8125 C2.48106718 161.48106718 -0.39474855 146.9370479 -0.46429062 132.77457428 C-0.45299376 130.6306245 -0.42229511 128.48748679 -0.390625 126.34375 C-0.38313623 124.81962844 -0.37745583 123.29549706 -0.37347412 121.7713623 C-0.35842445 117.81915241 -0.3193303 113.86755956 -0.2746582 109.91558838 C-0.23325054 105.85917501 -0.21536747 101.80265892 -0.1953125 97.74609375 C-0.1528081 89.83041867 -0.08263705 81.91535789 0 74 C-5.94 74 -11.88 74 -18 74 C-18 61.46 -18 48.92 -18 36 C-12.06 36 -6.12 36 0 36 C0 24.12 0 12.24 0 0 Z " fill="#0A2357" transform="translate(1365,92)"/>
<path d="M0 0 C5.3253216 2.32024569 9.26557883 6.0293633 13.2265625 10.1875 C15.03050214 12.03117399 16.91375872 13.70058057 18.875 15.375 C21.8846753 17.96634205 24.71088616 20.67254783 27.5 23.5 C30.12707492 26.16269628 32.76729011 28.7126475 35.625 31.125 C40.51943173 35.31180304 44.96848488 39.94372678 49.49707031 44.51660156 C53.2674754 48.30968578 57.09111457 51.94704476 61.1796875 55.3984375 C64.19556138 58.05188877 66.96137714 60.95399875 69.78125 63.8125 C72.39995532 66.39432215 75.15220498 68.77477776 77.9453125 71.1640625 C81.14741818 74.02525959 84.12375777 77.10281722 87.1171875 80.1796875 C88.87753339 82.06383898 88.87753339 82.06383898 91 83 C91 83.66 91 84.32 91 85 C91.59022949 85.26353271 92.18045898 85.52706543 92.78857422 85.79858398 C95.09160527 87.04976701 96.56361442 88.34804978 98.3828125 90.22265625 C99.29740234 91.15368164 99.29740234 91.15368164 100.23046875 92.10351562 C100.85566406 92.74998047 101.48085938 93.39644531 102.125 94.0625 C103.37536074 95.3472393 104.62786516 96.62989681 105.8828125 97.91015625 C106.43340332 98.47871338 106.98399414 99.04727051 107.55126953 99.63305664 C108.97414012 101.10729905 108.97414012 101.10729905 111 102 C111 102.66 111 103.32 111 104 C111.56203125 104.23332031 112.1240625 104.46664062 112.703125 104.70703125 C115.56734142 106.31937076 117.47252021 108.3193562 119.75 110.6875 C122.68598169 113.68758609 125.60628954 116.60321813 128.8125 119.3125 C133.18696186 123.04809522 137.17200015 127.14545889 141.21313477 131.23266602 C144.7198874 134.76391641 148.31378526 138.10665808 152.109375 141.328125 C155.14651241 144.01385808 157.9428397 146.93523342 160.7890625 149.8203125 C162.75892811 151.76233548 164.77153633 153.58061671 166.875 155.375 C170.75962224 158.70246527 174.33554047 162.30585985 177.92431641 165.94384766 C181.21333767 169.2603251 184.62152585 172.35983914 188.171875 175.390625 C190.6458565 177.56857453 192.92563761 179.91528874 195.234375 182.265625 C197.01224084 184.01202419 198.85485395 185.63219239 200.75 187.25 C204.24663765 190.27356314 207.58565839 193.4412408 210.875 196.6875 C211.80054688 197.59886719 212.72609375 198.51023437 213.6796875 199.44921875 C217.65245034 203.81658261 218.459177 206.95741394 218.31640625 212.75390625 C217.67088091 217.3363392 215.00003981 220.06051623 211.7421875 223.12109375 C207.61544157 225.94867892 204.27257725 225.78658508 199.3828125 225.6640625 C193.72340227 224.55309283 189.78224075 221.25181917 186 217 C186 216.34 186 215.68 186 215 C185.46503906 214.79375 184.93007813 214.5875 184.37890625 214.375 C181.02052273 212.43386536 178.611881 209.78266882 175.9375 207 C171.75878134 202.67183338 171.75878134 202.67183338 167 199 C167 198.34 167 197.68 167 197 C166.43796875 196.76667969 165.8759375 196.53335938 165.296875 196.29296875 C162.43265858 194.68062924 160.52747979 192.6806438 158.25 190.3125 C155.25314829 187.24992786 152.26228399 184.27824592 149 181.5 C145.84605835 178.80388859 142.91626603 175.95183025 140 173 C137.14476317 170.11010172 134.28499804 167.31548255 131.1875 164.6875 C127.42865112 161.4776108 123.97257593 158.01209878 120.5 154.5 C117.08930207 151.05061558 113.70378465 147.63880055 110 144.5 C105.67738918 140.83677049 101.76206323 136.7877758 97.78173828 132.76220703 C94.31965018 129.27597185 90.77161983 125.98352567 87.0234375 122.8046875 C83.90516244 120.02352325 81.00554402 117.02614322 78.07250977 114.05297852 C74.80603386 110.75924885 71.42088307 107.68503056 67.89453125 104.67578125 C65.13339675 102.23345816 62.58531189 99.59445739 60 96.96875 C58.06108998 95.06013545 56.06300449 93.27289448 54 91.5 C50.48858352 88.48237647 47.24692598 85.26640919 44 81.96875 C41.44342219 79.45211872 38.7410573 77.13581839 36.01953125 74.80078125 C33.13467336 72.22840313 30.44994203 69.4746866 27.76171875 66.69921875 C25.90690694 64.80910864 25.90690694 64.80910864 23 63 C23 62.34 23 61.68 23 61 C22.41444336 60.74114014 21.82888672 60.48228027 21.22558594 60.21557617 C18.8311604 58.90778276 17.28906671 57.50263899 15.390625 55.55078125 C14.71773437 54.86693359 14.04484375 54.18308594 13.3515625 53.47851562 C12.65804687 52.76373047 11.96453125 52.04894531 11.25 51.3125 C6.5805061 46.52316168 1.85800161 41.91931995 -3.21435547 37.55639648 C-6.28213768 34.88246819 -9.09832884 31.97434683 -11.94921875 29.07421875 C-13.60100448 27.40355547 -15.28602972 25.79280358 -17 24.1875 C-19.08679343 21.90506968 -19.73319278 21.02381514 -20 18 C-20.103125 16.88625 -20.20625 15.7725 -20.3125 14.625 C-19.92646236 10.14696337 -18.94381572 8.38538807 -16 5 C-11.15207491 0.92431076 -6.37199079 -1.52778726 0 0 Z " fill="#FCFCFD" transform="translate(195,162)"/>
<path d="M0 0 C15.18 0 30.36 0 46 0 C46 64.35 46 128.7 46 195 C30.82 195 15.64 195 0 195 C0 130.65 0 66.3 0 0 Z " fill="#0A2357" transform="translate(2290,80)"/>
<path d="M0 0 C15.18 0 30.36 0 46 0 C46 64.35 46 128.7 46 195 C30.82 195 15.64 195 0 195 C0 130.65 0 66.3 0 0 Z " fill="#0A2357" transform="translate(1225,80)"/>
<path d="M0 0 C15.18 0 30.36 0 46 0 C46 48.84 46 97.68 46 148 C30.82 148 15.64 148 0 148 C0 99.16 0 50.32 0 0 Z " fill="#0A2357" transform="translate(2705,128)"/>
<path d="M0 0 C15.18 0 30.36 0 46 0 C46 48.84 46 97.68 46 148 C30.82 148 15.64 148 0 148 C0 99.16 0 50.32 0 0 Z " fill="#0A2357" transform="translate(811,128)"/>
<path d="M0 0 C4.15248047 2.0234951 7.09318878 5.42668874 10.2421875 8.73046875 C12.27021202 10.82515843 14.34602993 12.73448141 16.5625 14.625 C20.14786116 17.69406916 23.45573102 20.97419795 26.73828125 24.36328125 C28.59309306 26.25339136 28.59309306 26.25339136 31.5 28.0625 C31.5 28.7225 31.5 29.3825 31.5 30.0625 C32.09006836 30.32587158 32.68013672 30.58924316 33.28808594 30.8605957 C35.59572815 32.11451652 37.06727394 33.41445261 38.890625 35.29296875 C39.51356445 35.92750977 40.13650391 36.56205078 40.77832031 37.21582031 C41.75430176 38.22273926 41.75430176 38.22273926 42.75 39.25 C47.2162643 43.79315838 51.67425358 48.21817476 56.546875 52.328125 C59.64782397 55.08176768 62.5212163 58.06355221 65.43237305 61.0144043 C68.65430605 64.26316345 71.99375961 67.28723979 75.47265625 70.25390625 C78.8160617 73.2365589 81.9107637 76.46606692 85.05859375 79.65234375 C87.77202727 82.33104532 90.60777023 84.80858118 93.50390625 87.28515625 C95.76132626 89.29518777 97.87735713 91.41082953 100 93.5625 C102.70803565 96.30750542 105.44169249 98.9352091 108.375 101.4375 C112.26041153 104.76564135 115.83697227 108.36985697 119.42651367 112.00854492 C122.68995694 115.29919772 126.0727217 118.3701587 129.59375 121.37890625 C134.01593371 125.28456441 138.06603308 129.59518501 142.1875 133.8125 C144.47807721 136.12884911 144.47807721 136.12884911 147.1875 138.125 C150.13603501 140.5953942 151.24639558 142.60671308 151.90625 146.39453125 C152.08285239 151.06713623 151.9213507 154.26024046 148.9375 158 C145.18195441 161.70302048 141.5232172 163.76170773 136.18359375 164.29296875 C128.47020514 164.16018741 123.86336214 160.28142689 118.5 155.0625 C117.60003253 154.06360849 116.72007298 153.04574249 115.875 152 C113.41855999 148.96177157 110.81280044 146.62384991 107.85546875 144.09375 C100.12395246 137.4264391 92.72447288 130.42937093 85.59667969 123.12231445 C82.71988689 120.19304367 79.71349966 117.61113766 76.5 115.0625 C75.901875 114.299375 75.30375 113.53625 74.6875 112.75 C72.84291047 110.48379 71.14203677 108.81494086 68.9375 106.9375 C63.48839015 102.28432754 58.52891783 97.15907143 53.5 92.0625 C49.81817683 88.33347397 46.04298358 84.73447671 42.1875 81.1875 C41.61499512 80.65938721 41.04249023 80.13127441 40.45263672 79.5871582 C37.38121147 76.76236588 34.28441434 73.97661785 31.125 71.25 C28.02287007 68.56970782 25.14508287 65.72830835 22.2734375 62.8046875 C20.45199585 61.01534173 18.56285721 59.34961468 16.625 57.6875 C12.66629725 54.28548983 9.02124345 50.62266313 5.3828125 46.8828125 C3.62246661 44.99866102 3.62246661 44.99866102 1.5 44.0625 C1.5 43.4025 1.5 42.7425 1.5 42.0625 C0.90759521 41.79606689 0.31519043 41.52963379 -0.29516602 41.25512695 C-2.54520525 40.03804782 -3.99331612 38.79950372 -5.77734375 36.98046875 C-6.37353516 36.37783203 -6.96972656 35.77519531 -7.58398438 35.15429688 C-8.19564453 34.52587891 -8.80730469 33.89746094 -9.4375 33.25 C-10.04529297 32.63318359 -10.65308594 32.01636719 -11.27929688 31.38085938 C-12.46987279 30.17230281 -13.65793926 28.96126806 -14.84326172 27.74755859 C-16.33869303 26.22656436 -17.85490962 24.73051654 -19.37890625 23.23828125 C-23.11344622 19.4074548 -22.95199524 16.08407493 -22.91796875 10.8984375 C-22.25891782 6.42674614 -19.98939844 3.80760015 -16.5 1.0625 C-11.21872483 -2.11693435 -5.78558719 -1.54971085 0 0 Z " fill="#FCFCFD" transform="translate(307.5,96.9375)"/>
<path d="M0 0 C3.424969 1.98966204 6.20374067 4.34138564 9.05078125 7.05859375 C9.57510742 7.54875977 10.09943359 8.03892578 10.63964844 8.54394531 C13.9996351 11.70029642 17.27124833 14.93616402 20.5 18.2265625 C22.16497111 19.85928236 23.89778847 21.36260725 25.67578125 22.87109375 C29.6906973 26.32251281 33.39195283 30.04798492 37.11328125 33.80859375 C41.38682017 38.12719437 45.68464365 42.30944957 50.32421875 46.23828125 C53.06243573 48.64169441 55.57365601 51.26060223 58.12890625 53.85546875 C59.98107595 55.67847042 61.88503305 57.37463041 63.86328125 59.05859375 C67.45844814 62.14420943 70.7866653 65.44056335 74.11328125 68.80859375 C77.98584639 72.72925036 81.9212038 76.46263575 86.12109375 80.03515625 C89.45785894 83.00553154 92.54106301 86.22940786 95.6796875 89.40625 C97.7457049 91.44573748 99.84333674 93.36367175 102.05078125 95.24609375 C105.40253221 98.1103173 108.51884542 101.17193468 111.61328125 104.30859375 C114.68718652 107.42438498 117.7803027 110.46736613 121.11328125 113.30859375 C124.96054915 116.58823196 128.48900682 120.15515475 132.03588867 123.75073242 C135.34078494 127.08326063 138.7688324 130.19890767 142.328125 133.25390625 C151.84271341 141.54013423 151.84271341 141.54013423 152.30859375 147.16796875 C152.28539062 147.956875 152.2621875 148.74578125 152.23828125 149.55859375 C152.22023438 150.3578125 152.2021875 151.15703125 152.18359375 151.98046875 C152.16039062 152.58375 152.1371875 153.18703125 152.11328125 153.80859375 C151.45328125 153.80859375 150.79328125 153.80859375 150.11328125 153.80859375 C150.03078125 154.38609375 149.94828125 154.96359375 149.86328125 155.55859375 C148.62587206 159.27082132 146.26359617 161.15127094 142.92578125 163.05859375 C137.61794687 164.47401625 133.0719921 164.94105595 128.21484375 162.1328125 C124.92422779 159.66692271 121.91641485 157.06110366 118.92578125 154.24609375 C118.36479736 153.72378174 117.80381348 153.20146973 117.22583008 152.66333008 C112.65114761 148.37791475 108.22027203 143.964411 103.84375 139.4765625 C101.04967927 136.74644761 98.14965127 134.19360915 95.19897461 131.63598633 C91.83009341 128.68432113 88.56439241 125.62567946 85.30078125 122.55859375 C84.60791016 121.90890625 83.91503906 121.25921875 83.20117188 120.58984375 C78.19848489 115.87925063 73.33370954 111.05561399 68.50390625 106.16796875 C65.75507178 103.45506675 62.88613233 100.93114835 59.94921875 98.42578125 C57.44011063 96.21563069 55.12537781 93.8353362 52.7890625 91.4453125 C51.15486428 89.84920748 49.45981388 88.42081301 47.67578125 86.99609375 C46.83015625 86.27421875 45.98453125 85.55234375 45.11328125 84.80859375 C45.11328125 84.14859375 45.11328125 83.48859375 45.11328125 82.80859375 C44.530625 82.55078125 43.94796875 82.29296875 43.34765625 82.02734375 C40.93299095 80.71025358 39.29587948 79.25770991 37.36328125 77.30859375 C36.7496875 76.70015625 36.13609375 76.09171875 35.50390625 75.46484375 C34.11328125 73.80859375 34.11328125 73.80859375 34.11328125 71.80859375 C33.54738281 71.57269531 32.98148438 71.33679688 32.3984375 71.09375 C29.59026073 69.51445059 27.76945644 67.58173369 25.55078125 65.24609375 C22.18035599 61.79717241 18.78432908 58.6551606 14.98828125 55.68359375 C9.21709207 51.0863449 4.09651715 45.93256148 -1.05322266 40.65576172 C-4.91941119 36.7077903 -8.8829952 32.96796306 -13.08178711 29.37426758 C-21.06752797 22.44709916 -21.06752797 22.44709916 -22.88671875 17.80859375 C-23.08218775 12.60539515 -22.16648618 7.93867125 -18.88671875 3.80859375 C-16.94921875 2.12109375 -16.94921875 2.12109375 -14.88671875 0.80859375 C-14.02046875 0.22078125 -14.02046875 0.22078125 -13.13671875 -0.37890625 C-8.50115556 -2.05285962 -4.45706405 -1.83951899 0 0 Z " fill="#FCFCFD" transform="translate(151.88671875,290.19140625)"/>
<path d="M0 0 C4.66745422 2.99481704 8.59945586 6.44078474 12.37890625 10.48828125 C13.75374498 12.02144425 13.75374498 12.02144425 15.7890625 12.90625 C15.7890625 13.56625 15.7890625 14.22625 15.7890625 14.90625 C16.37913086 15.16962158 16.96919922 15.43299316 17.57714844 15.7043457 C19.88479065 16.95826652 21.35633644 18.25820261 23.1796875 20.13671875 C23.80278809 20.7714209 24.42588867 21.40612305 25.06787109 22.06005859 C25.71836426 22.73117676 26.36885742 23.40229492 27.0390625 24.09375 C31.5400071 28.67235288 36.03084213 33.14274864 40.9453125 37.28125 C44.09123122 40.05392413 46.98338328 43.08159714 49.90625 46.0859375 C51.66659589 47.97008898 51.66659589 47.97008898 53.7890625 48.90625 C53.7890625 49.56625 53.7890625 50.22625 53.7890625 50.90625 C54.33046875 51.11894531 54.871875 51.33164062 55.4296875 51.55078125 C58.64231141 53.39644433 60.99455525 55.94589611 63.5390625 58.59375 C66.88217823 62.00964104 70.2043618 65.37278253 73.8515625 68.46875 C77.6838116 71.72735682 81.1913375 75.27990665 84.72070312 78.85742188 C87.93511925 82.09858765 91.26428379 85.11808427 94.73828125 88.07421875 C98.21266969 91.17800576 101.43486392 94.53399078 104.6875 97.8671875 C106.62002296 99.94751091 106.62002296 99.94751091 108.7890625 100.90625 C108.7890625 101.56625 108.7890625 102.22625 108.7890625 102.90625 C109.38364258 103.1741333 109.97822266 103.4420166 110.59082031 103.71801758 C112.81146007 104.91835673 114.2134232 106.11327998 115.9609375 107.91796875 C116.53932373 108.50795654 117.11770996 109.09794434 117.71362305 109.70581055 C118.31601807 110.32883057 118.91841309 110.95185059 119.5390625 111.59375 C123.9655049 116.10287598 128.39622793 120.50517616 133.23828125 124.57421875 C136.69025104 127.53926081 138.52907941 129.43001761 139.02734375 134.17578125 C139.19671935 139.97912413 138.77861122 143.36259729 134.7890625 147.90625 C130.48410763 151.80761535 126.5796664 152.18370771 120.828125 152.140625 C117.75786068 151.78772106 115.40848618 150.47790421 112.7890625 148.90625 C112.7890625 148.24625 112.7890625 147.58625 112.7890625 146.90625 C112.2115625 146.64457031 111.6340625 146.38289062 111.0390625 146.11328125 C105.24376139 143.00434368 100.77948193 138.03678927 96.7890625 132.90625 C96.0465625 132.349375 95.3040625 131.7925 94.5390625 131.21875 C93.9615625 130.785625 93.3840625 130.3525 92.7890625 129.90625 C92.7890625 129.24625 92.7890625 128.58625 92.7890625 127.90625 C92.25796875 127.70386719 91.726875 127.50148438 91.1796875 127.29296875 C87.74689335 125.30172378 85.2800783 122.56159428 82.5390625 119.71875 C78.36650117 115.46239996 74.15972414 111.37190611 69.61328125 107.51171875 C66.87255805 105.09964758 64.35339385 102.47941628 61.79296875 99.87890625 C59.20660099 97.33287171 56.4737097 94.98603443 53.72265625 92.62109375 C51.83411653 90.94620701 50.05750602 89.20677413 48.2890625 87.40625 C45.99891113 85.07501968 43.65450649 82.89656436 41.1640625 80.78125 C37.34961818 77.50112473 33.82342535 73.98100557 30.2890625 70.40625 C26.26190125 66.33327349 22.19223987 62.42832208 17.82421875 58.71875 C13.27559165 54.66776541 9.06541212 50.24012899 4.7890625 45.90625 C1.06616706 42.13547166 -2.75302477 38.49640817 -6.6484375 34.90625 C-7.46924805 34.14441406 -7.46924805 34.14441406 -8.30664062 33.3671875 C-10.98441754 30.89539343 -13.68829873 28.48609632 -16.50390625 26.171875 C-19.87541885 23.35011842 -21.85976365 21.24307352 -22.52734375 16.80078125 C-22.81058779 11.34604922 -21.92877054 8.11327159 -18.2109375 3.90625 C-12.67683312 -0.27256351 -6.80129445 -3.36459796 0 0 Z " fill="#FCFCFD" transform="translate(232.2109375,281.09375)"/>
<path d="M0 0 C3.0625 1.4375 3.0625 1.4375 6 4 C7.06927734 4.91458984 7.06927734 4.91458984 8.16015625 5.84765625 C13.56396234 10.56635222 18.63140506 15.5883288 23.66943359 20.68847656 C27.02642473 24.07260148 30.48620113 27.25187795 34.1171875 30.3359375 C36.99889071 32.88283701 39.66052225 35.63775005 42.3359375 38.3984375 C43.92422733 40.08628724 43.92422733 40.08628724 46 41 C46 41.66 46 42.32 46 43 C46.59458008 43.2678833 47.18916016 43.5357666 47.80175781 43.81176758 C50.02239757 45.01210673 51.4243607 46.20702998 53.171875 48.01171875 C53.74969727 48.60114258 54.32751953 49.19056641 54.92285156 49.79785156 C55.52581055 50.42143555 56.12876953 51.04501953 56.75 51.6875 C61.05907291 56.07641162 65.38010272 60.32162538 70.078125 64.296875 C73.40048256 67.24107804 76.4592868 70.4527327 79.578125 73.609375 C81.58001464 75.58543381 83.60477773 77.43481192 85.75 79.25 C90.37565961 83.19873381 94.58073972 87.55527047 98.85522461 91.87475586 C102.49391775 95.53697186 106.20259989 99.0265078 110.14453125 102.36328125 C112.36163584 104.31900088 114.42375912 106.3955589 116.5 108.5 C121.0758959 113.13093245 125.86072123 117.45013684 130.9140625 121.5546875 C139.45616223 128.57011409 139.45616223 128.57011409 140.34375 134.16796875 C140.54411501 139.15204826 139.84403786 142.78297835 137 147 C131.68179509 151.79935565 128.17411554 152.46479903 121.11328125 152.4140625 C116.20822872 151.76169667 113.43092882 149.40141546 110 146 C109.27296875 145.27941406 108.5459375 144.55882812 107.796875 143.81640625 C106.24272867 142.25140695 104.6889221 140.6860693 103.13647461 139.11938477 C100.9886592 136.9527534 98.83811342 134.78885379 96.6875 132.625 C95.96626953 131.89539063 95.24503906 131.16578125 94.50195312 130.4140625 C89.83673457 125.72792368 85.0322273 121.28846397 80 117 C78.3307561 115.56549352 76.66352026 114.12863995 75 112.6875 C74.236875 112.03136719 73.47375 111.37523437 72.6875 110.69921875 C71 109 71 109 71 107 C70.40993164 106.73662842 69.81986328 106.47325684 69.21191406 106.2019043 C66.90427185 104.94798348 65.43272606 103.64804739 63.609375 101.76953125 C62.98627441 101.1348291 62.36317383 100.50012695 61.72119141 99.84619141 C61.07069824 99.17507324 60.42020508 98.50395508 59.75 97.8125 C55.24637191 93.23116733 50.75158756 88.76007161 45.8359375 84.6171875 C42.76072633 81.90838447 39.93330514 78.9529686 37.078125 76.015625 C35.05614943 73.95840608 35.05614943 73.95840608 32.734375 72.359375 C32.16203125 71.91078125 31.5896875 71.4621875 31 71 C31 70.34 31 69.68 31 69 C30.18789063 68.68095703 30.18789063 68.68095703 29.359375 68.35546875 C26.14675541 66.50980816 23.79449805 63.96036071 21.25 61.3125 C17.30359425 57.28006906 13.30600494 53.44059292 9.00390625 49.78515625 C5.64455935 46.79252168 2.53384223 43.55248759 -0.60546875 40.33203125 C-2.95878511 38.04013913 -5.41848345 36.027414 -8 34 C-9.68873879 32.35570171 -11.35305515 30.68615782 -13 29 C-13.60585937 28.42765625 -14.21171875 27.8553125 -14.8359375 27.265625 C-15.46757812 26.66234375 -16.09921875 26.0590625 -16.75 25.4375 C-17.34296875 24.87933594 -17.9359375 24.32117188 -18.546875 23.74609375 C-21.61932117 20.05420278 -21.31875596 15.62196147 -21 11 C-17.20275821 0.80740362 -9.93148712 -0.96339675 0 0 Z " fill="#FCFCFD" transform="translate(238,117)"/>
<path d="M0 0 C3.52608868 2.55092496 6.17518325 5.03721235 8.6953125 8.60546875 C9.3140625 7.80882812 9.3140625 7.80882812 9.9453125 6.99609375 C14.66960156 1.21727588 19.01427008 -1.95421051 26.1328125 -4.14453125 C35.65713201 -5.07373315 44.37040412 -4.46409965 52.0703125 1.79296875 C57.17854914 6.66385298 60.44996803 12.82883206 60.81556702 19.94671631 C60.81334641 20.8083136 60.81112579 21.66991089 60.80883789 22.55761719 C60.80872459 24.02868927 60.80872459 24.02868927 60.80860901 25.52947998 C60.80344772 26.58065002 60.79828644 27.63182007 60.79296875 28.71484375 C60.7915538 29.79679016 60.79013885 30.87873657 60.78868103 31.99346924 C60.78308568 35.44749725 60.770534 38.90146034 60.7578125 42.35546875 C60.7527969 44.69791573 60.7482341 47.04036373 60.74414062 49.3828125 C60.73311777 55.12372292 60.71585629 60.86458483 60.6953125 66.60546875 C56.7353125 66.60546875 52.7753125 66.60546875 48.6953125 66.60546875 C48.6859668 65.2894165 48.67662109 63.97336426 48.66699219 62.61743164 C48.62691261 57.70254525 48.56110414 52.78827302 48.48779297 47.8737793 C48.45968724 45.75276622 48.43842134 43.63165043 48.42431641 41.51049805 C48.40274261 38.44917609 48.3560183 35.38907567 48.3046875 32.328125 C48.30345886 31.3902565 48.30223022 30.452388 48.30096436 29.48609924 C48.16359163 23.21434654 47.05555815 17.98611018 43.6953125 12.60546875 C38.18792314 8.01597762 33.75645731 7.12674707 26.6953125 7.60546875 C22.0982527 9.16379411 18.64966836 10.7014985 15.6953125 14.60546875 C12.85771245 20.89114155 12.23111175 26.16163773 12.18359375 33.01171875 C12.16564255 33.97702515 12.14769135 34.94233154 12.12919617 35.93688965 C12.07540052 38.99303943 12.04129644 42.04903581 12.0078125 45.10546875 C11.97461228 47.18882329 11.94012014 49.27215766 11.90429688 51.35546875 C11.81969183 56.43869084 11.75273458 61.52186987 11.6953125 66.60546875 C7.7353125 66.60546875 3.7753125 66.60546875 -0.3046875 66.60546875 C-0.31927002 65.38553223 -0.33385254 64.1655957 -0.34887695 62.90869141 C-0.40725677 58.34232632 -0.48448446 53.77643406 -0.56713867 49.21044922 C-0.60020255 47.24177783 -0.62829095 45.27301586 -0.65112305 43.30419922 C-0.68501258 40.45892061 -0.73734221 37.61445836 -0.79296875 34.76953125 C-0.79935867 33.90244537 -0.8057486 33.0353595 -0.81233215 32.14199829 C-0.96887705 25.4978204 -1.50979301 17.83551037 -6.01948547 12.62368774 C-10.03229814 8.94160628 -13.1391183 7.772051 -18.5546875 7.35546875 C-24.23289132 7.73401567 -28.60063502 8.90141627 -32.6796875 12.98046875 C-36.4419423 19.05795728 -36.63619121 24.14922547 -36.71875 31.15625 C-36.73811615 32.17019333 -36.7574823 33.18413666 -36.7774353 34.22880554 C-36.83708176 37.45844178 -36.88355701 40.68811395 -36.9296875 43.91796875 C-36.96788099 46.11134343 -37.00693352 48.30470333 -37.046875 50.49804688 C-37.14277118 55.86706708 -37.22685764 61.23615749 -37.3046875 66.60546875 C-41.5946875 66.60546875 -45.8846875 66.60546875 -50.3046875 66.60546875 C-50.3046875 43.83546875 -50.3046875 21.06546875 -50.3046875 -2.39453125 C-46.0146875 -2.39453125 -41.7246875 -2.39453125 -37.3046875 -2.39453125 C-36.9746875 -0.41453125 -36.6446875 1.56546875 -36.3046875 3.60546875 C-35.5003125 2.84234375 -34.6959375 2.07921875 -33.8671875 1.29296875 C-24.25231272 -6.65171651 -10.41179201 -6.30001652 0 0 Z " fill="#0A2357" transform="translate(2919.3046875,403.39453125)"/>
<path d="M0 0 C151.14 0 302.28 0 458 0 C458 153.78 458 307.56 458 466 C306.86 466 155.72 466 0 466 C0 312.22 0 158.44 0 0 Z M2 1 C2 153.79 2 306.58 2 464 C151.82 464 301.64 464 456 464 C456 311.21 456 158.42 456 1 C306.18 1 156.36 1 2 1 Z " fill="#9AA4BA" transform="translate(65,42)"/>
<path d="M0 0 C7.67494102 5.35618675 12.41718206 12.02636332 15 21 C17.10468918 35.32546507 14.80924048 45.53308959 7.3125 57.75 C0.41715855 64.45898087 -7.56758309 67.87037951 -17.1015625 68.0625 C-27.05809848 67.68942137 -33.94544082 65.05455918 -41 58 C-41.33 71.53 -41.66 85.06 -42 99 C-46.29 99 -50.58 99 -55 99 C-55 65.34 -55 31.68 -55 -3 C-50.71 -3 -46.42 -3 -42 -3 C-41.67 -0.36 -41.34 2.28 -41 5 C-40.5153125 4.60167969 -40.030625 4.20335937 -39.53125 3.79296875 C-28.06211323 -5.2720605 -13.15872636 -7.88128664 0 0 Z M-36.921875 14.23046875 C-42.37731529 22.19281375 -42.81778032 29.56699908 -42 39 C-40.15997457 45.60345574 -36.73712658 50.11667162 -31.03515625 53.87890625 C-24.97459273 57.21745084 -19.60782493 57.46169436 -13 56 C-5.48144689 53.1082488 -1.53885514 47.95132259 2 41 C4.35571903 33.43361767 3.60970735 25.46493315 0.40234375 18.296875 C-2.97749648 12.76109212 -7.86331967 9.00514631 -14 7 C-22.69200406 5.73158159 -31.00766025 7.36661383 -36.921875 14.23046875 Z " fill="#0A2357" transform="translate(2230,404)"/>
<path d="M0 0 C4.29 0 8.58 0 13 0 C13.33 10.89 13.66 21.78 14 33 C16.64 30.69 19.28 28.38 22 26 C30.7928192 21.87003947 41.15555102 21.26679559 50.375 24.5625 C59.32597034 28.75137775 65.55687966 35.64612948 69.0859375 44.82421875 C72.61245084 57.07659203 71.26924149 68.73336803 65.26953125 79.81640625 C60.89302689 87.34399374 54.14124342 92.12909774 45.6875 94.4375 C35.71988516 96.12812018 26.44235728 94.57422438 18 89 C15.375 86.6875 15.375 86.6875 14 85 C13.67 87.97 13.34 90.94 13 94 C8.71 94 4.42 94 0 94 C0 62.98 0 31.96 0 0 Z M18.078125 41.23046875 C12.62268471 49.19281375 12.18221968 56.56699908 13 66 C14.84002543 72.60345574 18.26287342 77.11667162 23.96484375 80.87890625 C30.02540727 84.21745084 35.39217507 84.46169436 42 83 C49.51855311 80.1082488 53.46114486 74.95132259 57 68 C59.35571903 60.43361767 58.60970735 52.46493315 55.40234375 45.296875 C52.02250352 39.76109212 47.13668033 36.00514631 41 34 C32.30799594 32.73158159 23.99233975 34.36661383 18.078125 41.23046875 Z " fill="#0A2357" transform="translate(1596,377)"/>
<path d="M0 0 C4.29 0 8.58 0 13 0 C13.33 10.89 13.66 21.78 14 33 C16.64 30.69 19.28 28.38 22 26 C30.7928192 21.87003947 41.15555102 21.26679559 50.375 24.5625 C59.32597034 28.75137775 65.55687966 35.64612948 69.0859375 44.82421875 C72.61245084 57.07659203 71.26924149 68.73336803 65.26953125 79.81640625 C60.89302689 87.34399374 54.14124342 92.12909774 45.6875 94.4375 C35.71988516 96.12812018 26.44235728 94.57422438 18 89 C15.375 86.6875 15.375 86.6875 14 85 C13.67 87.97 13.34 90.94 13 94 C8.71 94 4.42 94 0 94 C0 62.98 0 31.96 0 0 Z M18.078125 41.23046875 C12.62268471 49.19281375 12.18221968 56.56699908 13 66 C14.84002543 72.60345574 18.26287342 77.11667162 23.96484375 80.87890625 C30.02540727 84.21745084 35.39217507 84.46169436 42 83 C49.51855311 80.1082488 53.46114486 74.95132259 57 68 C59.35571903 60.43361767 58.60970735 52.46493315 55.40234375 45.296875 C52.02250352 39.76109212 47.13668033 36.00514631 41 34 C32.30799594 32.73158159 23.99233975 34.36661383 18.078125 41.23046875 Z " fill="#0A2357" transform="translate(880,377)"/>
<path d="M0 0 C4.29 0 8.58 0 13 0 C14.99869248 7.20691146 16.99239601 14.41517699 18.98144531 21.62475586 C19.65910353 24.07826195 20.33813459 26.53138928 21.01855469 28.98413086 C21.99513309 32.5053651 22.96680073 36.02792244 23.9375 39.55078125 C24.24373291 40.65086014 24.54996582 41.75093903 24.86547852 42.88435364 C25.14576904 43.90518539 25.42605957 44.92601715 25.71484375 45.9777832 C25.96355225 46.87713089 26.21226074 47.77647858 26.46850586 48.70307922 C27 51 27 51 27 54 C27.66 54 28.32 54 29 54 C29.09982178 53.0711499 29.19964355 52.1422998 29.30249023 51.18530273 C30.04954711 45.98909628 31.63869267 41.04791192 33.16015625 36.03515625 C33.46948593 35.00184677 33.77881561 33.96853729 34.09751892 32.90391541 C35.08115356 29.62201329 36.07171933 26.34225102 37.0625 23.0625 C37.73288131 20.83021605 38.40280819 18.59779557 39.07226562 16.36523438 C40.70958569 10.90856127 42.35312279 5.45379591 44 0 C48.29 0 52.58 0 57 0 C59.39497879 6.1271279 61.33353283 12.30066231 63.13671875 18.625 C63.56317436 20.10625366 63.56317436 20.10625366 63.99824524 21.61743164 C64.89767585 24.7440982 65.79265538 27.87201822 66.6875 31 C67.29983559 33.13159507 67.91246284 35.26310638 68.52539062 37.39453125 C70.02030191 42.59539011 71.51156958 47.79728291 73 53 C73.27674561 51.998479 73.55349121 50.99695801 73.83862305 49.96508789 C74.89028498 46.16066379 75.94379852 42.35675429 76.99780273 38.55297852 C77.44913487 36.92323015 77.89999984 35.29335233 78.3503418 33.66333008 C81.45998038 22.40956543 84.67063943 11.19077401 88 0 C91.96 0 95.92 0 100 0 C99.42563557 4.62959503 98.55053982 8.91237559 97.15820312 13.36254883 C96.78111206 14.5768306 96.404021 15.79111237 96.01550293 17.04219055 C95.60425138 18.3471898 95.19282974 19.65213547 94.78125 20.95703125 C94.35866857 22.30973877 93.9365156 23.6625802 93.51477051 25.01554871 C92.63372446 27.83814409 91.74919226 30.65961293 90.86181641 33.48022461 C89.72369463 37.09801938 88.59181623 40.71772797 87.46219635 44.33818531 C86.38325644 47.7951593 85.30106561 51.25111297 84.21875 54.70703125 C84.01254532 55.36654093 83.80634064 56.02605061 83.59388733 56.70554543 C83.0116657 58.56573857 82.42679587 60.42510224 81.84179688 62.28442383 C81.50950073 63.34252762 81.17720459 64.40063141 80.83483887 65.49079895 C80 68 80 68 79 70 C74.71 70 70.42 70 66 70 C65.55084229 68.52611816 65.10168457 67.05223633 64.63891602 65.53369141 C62.97647814 60.08018285 61.31171598 54.62738618 59.64624023 49.17480469 C58.92489934 46.81204357 58.20419412 44.44908829 57.48413086 42.0859375 C56.45071677 38.69480302 55.41503981 35.30436691 54.37890625 31.9140625 C54.05596085 30.85256989 53.73301544 29.79107727 53.40028381 28.69741821 C53.10004807 27.71655243 52.79981232 26.73568665 52.49047852 25.72509766 C52.22622574 24.85905914 51.96197296 23.99302063 51.68971252 23.10073853 C51.048551 20.9755236 51.048551 20.9755236 50 19 C49.81429947 19.6241832 49.62859894 20.24836639 49.43727112 20.89146423 C47.51077378 27.36458512 45.57982565 33.83636599 43.64624023 40.30737305 C42.92438393 42.72532335 42.2036786 45.14361756 41.48413086 47.56225586 C40.45205388 51.03068798 39.41589778 54.4978783 38.37890625 57.96484375 C38.05596085 59.05337143 37.73301544 60.14189911 37.40028381 61.26341248 C37.10004807 62.26437454 36.79981232 63.26533661 36.49047852 64.29663086 C36.22622574 65.18265488 35.96197296 66.06867889 35.68971252 66.98155212 C35 69 35 69 34 70 C31.81360547 70.07258946 29.62499611 70.08373783 27.4375 70.0625 C26.23996094 70.05347656 25.04242187 70.04445313 23.80859375 70.03515625 C22.41833984 70.01775391 22.41833984 70.01775391 21 70 C20.82540253 69.44084396 20.65080505 68.88168793 20.47091675 68.30558777 C18.62127472 62.38224099 16.77120116 56.4590291 14.92089844 50.53588867 C14.23426867 48.33767969 13.54774189 46.13943855 12.86132812 43.94116211 C12.19443922 41.80546016 11.52738653 39.66980934 10.86016846 37.53421021 C10.19916835 35.41820945 9.53864442 33.30205989 8.87860107 31.1857605 C7.32650504 26.21514654 5.76357627 21.24865104 4.16894531 16.29150391 C3.88745636 15.41319412 3.60596741 14.53488434 3.31594849 13.62995911 C2.79189742 11.99797174 2.26433822 10.36710511 1.7326355 8.7375946 C0.76279818 5.71272896 0 3.197986 0 0 Z " fill="#0A2357" transform="translate(647,401)"/>
<path d="M0 0 C3.96 0 7.92 0 12 0 C12 31.02 12 62.04 12 94 C8.04 94 4.08 94 0 94 C-0.33 90.7 -0.66 87.4 -1 84 C-2.175625 85.093125 -3.35125 86.18625 -4.5625 87.3125 C-11.68132478 93.4622701 -18.70246642 95.17070135 -28 95 C-37.97879992 93.72952238 -44.88216825 90.04260421 -51.25 82.3125 C-58.09533077 72.36245637 -59.35497341 61.77314875 -58 50 C-56.00031712 40.6419335 -51.38705709 33.147434 -43.5625 27.625 C-34.92430498 22.36199376 -24.98082052 21.33519727 -15.1171875 23.6875 C-9.02293977 25.92392119 -6.31598838 28.44343854 -1 33 C-0.67 22.11 -0.34 11.22 0 0 Z M-40.4375 41.9375 C-45.68981378 49.46432004 -45.88393658 57.11507047 -45 66 C-43.0234832 72.57425116 -39.77861575 77.33280155 -34 81 C-28.00479734 83.88993701 -22.46295554 84.87115764 -16 83 C-9.86774786 80.22667516 -4.93573272 76.12904278 -2.03125 69.93359375 C0.88720063 62.1645701 0.95525603 54.91912422 -1.96484375 47.13671875 C-4.74425613 41.39959206 -8.88738217 37.23774278 -14.734375 34.66015625 C-24.31610541 31.86823825 -34.2057037 33.97464917 -40.4375 41.9375 Z " fill="#0A2357" transform="translate(1170,377)"/>
<path d="M0 0 C2.85427621 2.1586963 5.46375599 4.47757748 8 7 C8.33 4.03 8.66 1.06 9 -2 C12.96 -2 16.92 -2 21 -2 C21 21.1 21 44.2 21 68 C17.04 68 13.08 68 9 68 C8.67 64.7 8.34 61.4 8 58 C6.824375 59.093125 5.64875 60.18625 4.4375 61.3125 C-2.95368813 67.68643402 -10.34503854 69.32544814 -20 69 C-29.03503682 67.53206496 -36.21971991 64.21081218 -42 57 C-48.91989358 45.58875901 -51.05230981 33.85108709 -48.31640625 20.71875 C-44.93085821 10.71663298 -39.28336544 4.00379981 -30 -1 C-21.2421101 -4.77791329 -8.47026485 -4.69670517 0 0 Z M-31.4375 15.9375 C-36.68981378 23.46432004 -36.88393658 31.11507047 -36 40 C-34.0234832 46.57425116 -30.77861575 51.33280155 -25 55 C-19.00479734 57.88993701 -13.46295554 58.87115764 -7 57 C-0.86774786 54.22667516 4.06426728 50.12904278 6.96875 43.93359375 C9.88720063 36.1645701 9.95525603 28.91912422 7.03515625 21.13671875 C4.25574387 15.39959206 0.11261783 11.23774278 -5.734375 8.66015625 C-15.31610541 5.86823825 -25.2057037 7.97464917 -31.4375 15.9375 Z " fill="#0A2357" transform="translate(1554,403)"/>
<path d="M0 0 C2.85427621 2.1586963 5.46375599 4.47757748 8 7 C8.33 4.03 8.66 1.06 9 -2 C12.96 -2 16.92 -2 21 -2 C21 21.1 21 44.2 21 68 C17.04 68 13.08 68 9 68 C8.67 64.7 8.34 61.4 8 58 C6.824375 59.093125 5.64875 60.18625 4.4375 61.3125 C-2.95368813 67.68643402 -10.34503854 69.32544814 -20 69 C-29.03503682 67.53206496 -36.21971991 64.21081218 -42 57 C-48.91989358 45.58875901 -51.05230981 33.85108709 -48.31640625 20.71875 C-44.93085821 10.71663298 -39.28336544 4.00379981 -30 -1 C-21.2421101 -4.77791329 -8.47026485 -4.69670517 0 0 Z M-31.4375 15.9375 C-36.68981378 23.46432004 -36.88393658 31.11507047 -36 40 C-34.0234832 46.57425116 -30.77861575 51.33280155 -25 55 C-19.00479734 57.88993701 -13.46295554 58.87115764 -7 57 C-0.86774786 54.22667516 4.06426728 50.12904278 6.96875 43.93359375 C9.88720063 36.1645701 9.95525603 28.91912422 7.03515625 21.13671875 C4.25574387 15.39959206 0.11261783 11.23774278 -5.734375 8.66015625 C-15.31610541 5.86823825 -25.2057037 7.97464917 -31.4375 15.9375 Z " fill="#0A2357" transform="translate(1433,403)"/>
<path d="M0 0 C6.56054578 5.05322641 10.72274911 12.64544166 12.4140625 20.70703125 C12.98762885 25.47600991 13.30029303 29.9819334 11.76171875 34.59765625 C-6.05828125 34.59765625 -23.87828125 34.59765625 -42.23828125 34.59765625 C-39.19860367 45.51494408 -39.19860367 45.51494408 -31.38671875 52.69140625 C-25.95125358 55.03017214 -19.91615091 55.77144444 -14.21875 53.953125 C-12.53004129 53.23142423 -10.88086193 52.41894659 -9.23828125 51.59765625 C-8.24828125 51.26765625 -7.25828125 50.93765625 -6.23828125 50.59765625 C-5.1131204 48.76481182 -5.1131204 48.76481182 -4.23828125 46.59765625 C-3.57828125 45.27765625 -2.91828125 43.95765625 -2.23828125 42.59765625 C2.05171875 42.59765625 6.34171875 42.59765625 10.76171875 42.59765625 C9.41832938 50.65799247 6.29748187 56.10424393 -0.36328125 60.97265625 C-9.91275479 66.69596343 -20.41701844 67.76922872 -31.23828125 65.59765625 C-40.28423672 62.5004578 -46.96186194 57.6982284 -51.51171875 49.2265625 C-56.27499037 38.93992273 -57.28609437 26.38595682 -53.61328125 15.53515625 C-49.61994361 6.3014387 -43.66231669 -0.37056304 -34.30078125 -4.21484375 C-22.89438942 -7.60751414 -10.06336271 -6.30496896 0 0 Z M-39.17578125 13.91015625 C-42.03925109 17.76370718 -41.55809569 20.15617176 -42.23828125 25.59765625 C-28.37828125 25.59765625 -14.51828125 25.59765625 -0.23828125 25.59765625 C-1.29130433 18.22649468 -2.36015675 14.32818462 -7.67578125 9.28515625 C-18.43876119 2.19734019 -31.1571447 4.00611791 -39.17578125 13.91015625 Z " fill="#0A2357" transform="translate(2840.23828125,405.40234375)"/>
<path d="M0 0 C6.56054578 5.05322641 10.72274911 12.64544166 12.4140625 20.70703125 C12.98762885 25.47600991 13.30029303 29.9819334 11.76171875 34.59765625 C-6.05828125 34.59765625 -23.87828125 34.59765625 -42.23828125 34.59765625 C-39.19860367 45.51494408 -39.19860367 45.51494408 -31.38671875 52.69140625 C-25.95125358 55.03017214 -19.91615091 55.77144444 -14.21875 53.953125 C-12.53004129 53.23142423 -10.88086193 52.41894659 -9.23828125 51.59765625 C-8.24828125 51.26765625 -7.25828125 50.93765625 -6.23828125 50.59765625 C-5.1131204 48.76481182 -5.1131204 48.76481182 -4.23828125 46.59765625 C-3.57828125 45.27765625 -2.91828125 43.95765625 -2.23828125 42.59765625 C2.05171875 42.59765625 6.34171875 42.59765625 10.76171875 42.59765625 C9.41832938 50.65799247 6.29748187 56.10424393 -0.36328125 60.97265625 C-9.91275479 66.69596343 -20.41701844 67.76922872 -31.23828125 65.59765625 C-40.28423672 62.5004578 -46.96186194 57.6982284 -51.51171875 49.2265625 C-56.27499037 38.93992273 -57.28609437 26.38595682 -53.61328125 15.53515625 C-49.61994361 6.3014387 -43.66231669 -0.37056304 -34.30078125 -4.21484375 C-22.89438942 -7.60751414 -10.06336271 -6.30496896 0 0 Z M-39.17578125 13.91015625 C-42.03925109 17.76370718 -41.55809569 20.15617176 -42.23828125 25.59765625 C-28.37828125 25.59765625 -14.51828125 25.59765625 -0.23828125 25.59765625 C-1.29130433 18.22649468 -2.36015675 14.32818462 -7.67578125 9.28515625 C-18.43876119 2.19734019 -31.1571447 4.00611791 -39.17578125 13.91015625 Z " fill="#0A2357" transform="translate(2463.23828125,405.40234375)"/>
<path d="M0 0 C6.56054578 5.05322641 10.72274911 12.64544166 12.4140625 20.70703125 C12.98762885 25.47600991 13.30029303 29.9819334 11.76171875 34.59765625 C-6.05828125 34.59765625 -23.87828125 34.59765625 -42.23828125 34.59765625 C-39.19860367 45.51494408 -39.19860367 45.51494408 -31.38671875 52.69140625 C-25.95125358 55.03017214 -19.91615091 55.77144444 -14.21875 53.953125 C-12.53004129 53.23142423 -10.88086193 52.41894659 -9.23828125 51.59765625 C-8.24828125 51.26765625 -7.25828125 50.93765625 -6.23828125 50.59765625 C-5.1131204 48.76481182 -5.1131204 48.76481182 -4.23828125 46.59765625 C-3.57828125 45.27765625 -2.91828125 43.95765625 -2.23828125 42.59765625 C2.05171875 42.59765625 6.34171875 42.59765625 10.76171875 42.59765625 C9.41832938 50.65799247 6.29748187 56.10424393 -0.36328125 60.97265625 C-9.91275479 66.69596343 -20.41701844 67.76922872 -31.23828125 65.59765625 C-40.28423672 62.5004578 -46.96186194 57.6982284 -51.51171875 49.2265625 C-56.27499037 38.93992273 -57.28609437 26.38595682 -53.61328125 15.53515625 C-49.61994361 6.3014387 -43.66231669 -0.37056304 -34.30078125 -4.21484375 C-22.89438942 -7.60751414 -10.06336271 -6.30496896 0 0 Z M-39.17578125 13.91015625 C-42.03925109 17.76370718 -41.55809569 20.15617176 -42.23828125 25.59765625 C-28.37828125 25.59765625 -14.51828125 25.59765625 -0.23828125 25.59765625 C-1.29130433 18.22649468 -2.36015675 14.32818462 -7.67578125 9.28515625 C-18.43876119 2.19734019 -31.1571447 4.00611791 -39.17578125 13.91015625 Z " fill="#0A2357" transform="translate(2097.23828125,405.40234375)"/>
<path d="M0 0 C6.56054578 5.05322641 10.72274911 12.64544166 12.4140625 20.70703125 C12.98762885 25.47600991 13.30029303 29.9819334 11.76171875 34.59765625 C-6.05828125 34.59765625 -23.87828125 34.59765625 -42.23828125 34.59765625 C-39.19860367 45.51494408 -39.19860367 45.51494408 -31.38671875 52.69140625 C-25.95125358 55.03017214 -19.91615091 55.77144444 -14.21875 53.953125 C-12.53004129 53.23142423 -10.88086193 52.41894659 -9.23828125 51.59765625 C-8.24828125 51.26765625 -7.25828125 50.93765625 -6.23828125 50.59765625 C-5.1131204 48.76481182 -5.1131204 48.76481182 -4.23828125 46.59765625 C-3.57828125 45.27765625 -2.91828125 43.95765625 -2.23828125 42.59765625 C2.05171875 42.59765625 6.34171875 42.59765625 10.76171875 42.59765625 C9.41832938 50.65799247 6.29748187 56.10424393 -0.36328125 60.97265625 C-9.91275479 66.69596343 -20.41701844 67.76922872 -31.23828125 65.59765625 C-40.28423672 62.5004578 -46.96186194 57.6982284 -51.51171875 49.2265625 C-56.27499037 38.93992273 -57.28609437 26.38595682 -53.61328125 15.53515625 C-49.61994361 6.3014387 -43.66231669 -0.37056304 -34.30078125 -4.21484375 C-22.89438942 -7.60751414 -10.06336271 -6.30496896 0 0 Z M-39.17578125 13.91015625 C-42.03925109 17.76370718 -41.55809569 20.15617176 -42.23828125 25.59765625 C-28.37828125 25.59765625 -14.51828125 25.59765625 -0.23828125 25.59765625 C-1.29130433 18.22649468 -2.36015675 14.32818462 -7.67578125 9.28515625 C-18.43876119 2.19734019 -31.1571447 4.00611791 -39.17578125 13.91015625 Z " fill="#0A2357" transform="translate(1887.23828125,405.40234375)"/>
<path d="M0 0 C6.56054578 5.05322641 10.72274911 12.64544166 12.4140625 20.70703125 C12.98762885 25.47600991 13.30029303 29.9819334 11.76171875 34.59765625 C-6.05828125 34.59765625 -23.87828125 34.59765625 -42.23828125 34.59765625 C-39.19860367 45.51494408 -39.19860367 45.51494408 -31.38671875 52.69140625 C-25.95125358 55.03017214 -19.91615091 55.77144444 -14.21875 53.953125 C-12.53004129 53.23142423 -10.88086193 52.41894659 -9.23828125 51.59765625 C-8.24828125 51.26765625 -7.25828125 50.93765625 -6.23828125 50.59765625 C-5.1131204 48.76481182 -5.1131204 48.76481182 -4.23828125 46.59765625 C-3.57828125 45.27765625 -2.91828125 43.95765625 -2.23828125 42.59765625 C2.05171875 42.59765625 6.34171875 42.59765625 10.76171875 42.59765625 C9.41832938 50.65799247 6.29748187 56.10424393 -0.36328125 60.97265625 C-9.91275479 66.69596343 -20.41701844 67.76922872 -31.23828125 65.59765625 C-40.28423672 62.5004578 -46.96186194 57.6982284 -51.51171875 49.2265625 C-56.27499037 38.93992273 -57.28609437 26.38595682 -53.61328125 15.53515625 C-49.61994361 6.3014387 -43.66231669 -0.37056304 -34.30078125 -4.21484375 C-22.89438942 -7.60751414 -10.06336271 -6.30496896 0 0 Z M-39.17578125 13.91015625 C-42.03925109 17.76370718 -41.55809569 20.15617176 -42.23828125 25.59765625 C-28.37828125 25.59765625 -14.51828125 25.59765625 -0.23828125 25.59765625 C-1.29130433 18.22649468 -2.36015675 14.32818462 -7.67578125 9.28515625 C-18.43876119 2.19734019 -31.1571447 4.00611791 -39.17578125 13.91015625 Z " fill="#0A2357" transform="translate(1767.23828125,405.40234375)"/>
<path d="M0 0 C6.56054578 5.05322641 10.72274911 12.64544166 12.4140625 20.70703125 C12.98762885 25.47600991 13.30029303 29.9819334 11.76171875 34.59765625 C-6.05828125 34.59765625 -23.87828125 34.59765625 -42.23828125 34.59765625 C-39.19860367 45.51494408 -39.19860367 45.51494408 -31.38671875 52.69140625 C-25.95125358 55.03017214 -19.91615091 55.77144444 -14.21875 53.953125 C-12.53004129 53.23142423 -10.88086193 52.41894659 -9.23828125 51.59765625 C-8.24828125 51.26765625 -7.25828125 50.93765625 -6.23828125 50.59765625 C-5.1131204 48.76481182 -5.1131204 48.76481182 -4.23828125 46.59765625 C-3.57828125 45.27765625 -2.91828125 43.95765625 -2.23828125 42.59765625 C2.05171875 42.59765625 6.34171875 42.59765625 10.76171875 42.59765625 C9.41832938 50.65799247 6.29748187 56.10424393 -0.36328125 60.97265625 C-9.91275479 66.69596343 -20.41701844 67.76922872 -31.23828125 65.59765625 C-40.28423672 62.5004578 -46.96186194 57.6982284 -51.51171875 49.2265625 C-56.27499037 38.93992273 -57.28609437 26.38595682 -53.61328125 15.53515625 C-49.61994361 6.3014387 -43.66231669 -0.37056304 -34.30078125 -4.21484375 C-22.89438942 -7.60751414 -10.06336271 -6.30496896 0 0 Z M-39.17578125 13.91015625 C-42.03925109 17.76370718 -41.55809569 20.15617176 -42.23828125 25.59765625 C-28.37828125 25.59765625 -14.51828125 25.59765625 -0.23828125 25.59765625 C-1.29130433 18.22649468 -2.36015675 14.32818462 -7.67578125 9.28515625 C-18.43876119 2.19734019 -31.1571447 4.00611791 -39.17578125 13.91015625 Z " fill="#0A2357" transform="translate(811.23828125,405.40234375)"/>
<path d="M0 0 C4.6808252 3.80139743 7.43119053 8.29210976 8.625 14.25 C9.3541897 22.49545277 8.0436981 28.51201203 3.5625 35.4375 C-1.09880614 40.63883551 -8.71597933 43.82496654 -15.6015625 44.453125 C-23.93959856 44.61608336 -31.13646094 43.42681501 -37.75 38.0625 C-43.67055993 32.28575934 -45.59111812 27.5624162 -45.875 19.25 C-45.59111812 10.9375838 -43.67055993 6.21424066 -37.75 0.4375 C-26.85723543 -8.41413429 -11.29233541 -7.83549804 0 0 Z " fill="#FF0000" transform="translate(2746.375,69.75)"/>
<path d="M0 0 C4.6808252 3.80139743 7.43119053 8.29210976 8.625 14.25 C9.3541897 22.49545277 8.0436981 28.51201203 3.5625 35.4375 C-1.09880614 40.63883551 -8.71597933 43.82496654 -15.6015625 44.453125 C-23.93959856 44.61608336 -31.13646094 43.42681501 -37.75 38.0625 C-43.67055993 32.28575934 -45.59111812 27.5624162 -45.875 19.25 C-45.59111812 10.9375838 -43.67055993 6.21424066 -37.75 0.4375 C-26.85723543 -8.41413429 -11.29233541 -7.83549804 0 0 Z " fill="#FF0000" transform="translate(852.375,69.75)"/>
<path d="M0 0 C8.07482096 6.66659616 10.40957119 13.17376162 11.55389404 23.35192871 C12.19728015 31.1361667 11.92720795 38.99812793 11.85546875 46.80078125 C11.84541435 48.71679217 11.83629287 50.63280823 11.828125 52.54882812 C11.80631678 57.19544159 11.77192384 61.84180324 11.73046875 66.48828125 C7.44046875 66.48828125 3.15046875 66.48828125 -1.26953125 66.48828125 C-1.27887695 65.13669922 -1.28822266 63.78511719 -1.29785156 62.39257812 C-1.33788171 57.35286132 -1.40367713 52.3137466 -1.47705078 47.27441406 C-1.50518492 45.09806076 -1.52643685 42.92160672 -1.54052734 40.74511719 C-1.56206131 37.60690007 -1.60876631 34.46988462 -1.66015625 31.33203125 C-1.66138489 30.36712769 -1.66261353 29.40222412 -1.66387939 28.40808105 C-1.79372602 22.34759943 -2.69223975 17.50163106 -6.26953125 12.48828125 C-11.86185784 7.9445159 -16.15787429 7.01417079 -23.26953125 7.48828125 C-28.76176352 8.7920448 -32.21394131 10.55232826 -35.26953125 15.48828125 C-37.92686209 20.44046997 -37.61902982 25.55931839 -37.68359375 31.0390625 C-37.7029599 32.05300583 -37.72232605 33.06694916 -37.74227905 34.11161804 C-37.80192551 37.34125428 -37.84840076 40.57092645 -37.89453125 43.80078125 C-37.93272474 45.99415593 -37.97177727 48.18751583 -38.01171875 50.38085938 C-38.10761493 55.74987958 -38.19170139 61.11896999 -38.26953125 66.48828125 C-42.55953125 66.48828125 -46.84953125 66.48828125 -51.26953125 66.48828125 C-51.26953125 43.71828125 -51.26953125 20.94828125 -51.26953125 -2.51171875 C-46.97953125 -2.51171875 -42.68953125 -2.51171875 -38.26953125 -2.51171875 C-37.93953125 -0.53171875 -37.60953125 1.44828125 -37.26953125 3.48828125 C-36.48578125 2.72515625 -35.70203125 1.96203125 -34.89453125 1.17578125 C-25.39210943 -6.69445988 -10.11325807 -6.73636983 0 0 Z " fill="#0A2357" transform="translate(1967.26953125,403.51171875)"/>
<path d="M0 0 C4.62 0 9.24 0 14 0 C14.46374023 1.18964355 14.92748047 2.37928711 15.40527344 3.60498047 C17.14181134 8.05941693 18.87892799 12.51362751 20.61621094 16.96777344 C21.36506441 18.88796017 22.11376527 20.80820644 22.86230469 22.72851562 C23.9442503 25.50406678 25.02676225 28.27939651 26.109375 31.0546875 C26.43871033 31.8998996 26.76804565 32.74511169 27.10736084 33.61593628 C29.3735949 39.42329478 31.67645424 45.21534121 34 51 C36.22272219 48.77727781 36.84953933 47.19119774 37.97119141 44.27490234 C38.54155624 42.80360367 38.54155624 42.80360367 39.1234436 41.30258179 C39.52872284 40.24108917 39.93400208 39.17959656 40.3515625 38.0859375 C40.77045746 37.00116119 41.18935242 35.91638489 41.62094116 34.79873657 C42.96062352 31.32605872 44.29288372 27.85058631 45.625 24.375 C46.5307634 22.02325003 47.43700728 19.67168506 48.34375 17.3203125 C50.56808561 11.5490086 52.7857678 5.77518733 55 0 C59.29 0 63.58 0 68 0 C67.10472572 4.47637142 65.77989124 8.30246752 64.03515625 12.47265625 C63.7301973 13.21205444 63.42523834 13.95145264 63.11103821 14.71325684 C62.09896631 17.16472515 61.08069419 19.61356894 60.0625 22.0625 C59.34992202 23.78551874 58.63785474 25.50874876 57.92626953 27.23217773 C56.80138946 29.95649374 55.67618585 32.68067099 54.54937744 35.40419006 C51.72998172 42.22057566 48.93180021 49.04541943 46.14453125 55.875 C45.54515495 57.34325478 45.54515495 57.34325478 44.93367004 58.84117126 C43.36632313 62.68128168 41.79933821 66.52153876 40.2336731 70.36233521 C35.91619654 80.95069945 31.54159824 91.50561291 27 102 C22.71 102 18.42 102 14 102 C16.34852422 93.61241351 19.50029788 85.81012027 23.03515625 77.859375 C23.43089844 76.93125 23.82664062 76.003125 24.234375 75.046875 C24.77916504 73.80695801 24.77916504 73.80695801 25.33496094 72.54199219 C27.09841593 65.8015027 23.2046197 59.0531303 20.703125 52.8984375 C20.27247742 51.82558502 19.84182983 50.75273254 19.39813232 49.64736938 C18.0210677 46.22094224 16.63557722 42.7979924 15.25 39.375 C14.33279581 37.09526827 13.41612359 34.81532244 12.5 32.53515625 C8.71378206 23.12536881 4.9127252 13.72820863 0.92401123 4.40200806 C0 2 0 2 0 0 Z " fill="#0A2357" transform="translate(2592,401)"/>
<path d="M0 0 C3.96 0 7.92 0 12 0 C12.01401855 2.02737305 12.01401855 2.02737305 12.02832031 4.09570312 C12.06835046 9.13541993 12.13414588 14.17453465 12.20751953 19.21386719 C12.23565367 21.39022049 12.2569056 23.56667453 12.27099609 25.74316406 C12.29253006 28.88138118 12.33923506 32.01839663 12.390625 35.15625 C12.39185364 36.12115356 12.39308228 37.08605713 12.39434814 38.0802002 C12.5235881 44.11236628 13.38130677 49.03436446 17 54 C21.31007407 57.61770617 26.34485774 59.2613282 32 59 C37.97429805 57.86918647 42.16888142 55.8759691 46 51 C49.53582244 44.45872848 49.16240954 36.18487946 49.31640625 28.90625 C49.33718735 28.07411987 49.35796844 27.24198975 49.37937927 26.38464355 C49.44416194 23.75650364 49.50342412 21.12827375 49.5625 18.5 C49.60575322 16.70572029 49.64936954 14.9114493 49.69335938 13.1171875 C49.79976894 8.74488115 49.90123163 4.37248537 50 0 C53.96 0 57.92 0 62 0 C62 23.1 62 46.2 62 70 C58.04 70 54.08 70 50 70 C49.505 66.04 49.505 66.04 49 62 C48.34644531 62.61488281 48.34644531 62.61488281 47.6796875 63.2421875 C41.7940352 68.56730148 36.044204 70.86548154 28 71 C19.32997648 70.36902794 12.2671225 68.61954109 6.25 62.10546875 C0.25902158 54.57354155 -0.28638445 47.85253046 -0.1953125 38.4765625 C-0.1924826 37.37524994 -0.18965271 36.27393738 -0.18673706 35.13925171 C-0.17557478 31.63438892 -0.15047711 28.12978508 -0.125 24.625 C-0.11496511 22.24349328 -0.10584015 19.86198255 -0.09765625 17.48046875 C-0.07564832 11.65354661 -0.04114537 5.82681716 0 0 Z " fill="#0A2357" transform="translate(967,401)"/>
<path d="M0 0 C6.30583162 5.10584128 8.01119211 10.08953687 9 18 C4.71 18 0.42 18 -4 18 C-4.4125 16.906875 -4.825 15.81375 -5.25 14.6875 C-6.62450551 11.4781593 -7.88600289 9.75162337 -11 8 C-16.12789443 6.29070186 -20.41244889 6.38261901 -25.375 8.3125 C-28.21698375 9.89220247 -28.21698375 9.89220247 -30 13 C-30.48108188 16.47910224 -30.48108188 16.47910224 -29 20 C-23.12772788 24.77208062 -14.56937157 26.59823996 -7.42211914 28.76977539 C-1.1122354 30.74071553 4.40056836 33.12724311 8 39 C9.7506054 44.25181621 10.0572037 50.06057849 8.1640625 55.32421875 C4.48742357 61.80151887 -1.0966309 65.39736311 -8.1875 67.375 C-19.37522893 69.38454026 -28.94643508 66.88341901 -38.3125 60.875 C-42.38581914 56.5174958 -45 51.03809187 -45 45 C-40.71 45 -36.42 45 -32 45 C-31.12109375 46.98567708 -30.2421875 48.97135417 -29.36328125 50.95703125 C-27.5629579 53.65493701 -25.946841 54.65370631 -23 56 C-19.82103642 56.47195283 -19.82103642 56.47195283 -16.5 56.375 C-15.3965625 56.38273437 -14.293125 56.39046875 -13.15625 56.3984375 C-9.68538585 55.96028386 -7.79093391 55.07297627 -5 53 C-3.45836825 49.9167365 -3.70252465 47.39121901 -4 44 C-6.81334771 41.31460606 -9.75654836 40.23874979 -13.4296875 39.09765625 C-14.99396484 38.59782227 -14.99396484 38.59782227 -16.58984375 38.08789062 C-18.77171837 37.40686555 -20.95400771 36.72716766 -23.13671875 36.04882812 C-31.17155982 33.47787713 -37.03980509 31.16472598 -42 24 C-43.78793044 18.63620867 -43.69055197 13.11227662 -41.9375 7.75 C-32.66092644 -5.41674956 -13.68540597 -8.77651035 0 0 Z " fill="#0A2357" transform="translate(3041,404)"/>
<path d="M0 0 C6.30583162 5.10584128 8.01119211 10.08953687 9 18 C4.71 18 0.42 18 -4 18 C-4.4125 16.906875 -4.825 15.81375 -5.25 14.6875 C-6.62450551 11.4781593 -7.88600289 9.75162337 -11 8 C-16.12789443 6.29070186 -20.41244889 6.38261901 -25.375 8.3125 C-28.21698375 9.89220247 -28.21698375 9.89220247 -30 13 C-30.48108188 16.47910224 -30.48108188 16.47910224 -29 20 C-23.12772788 24.77208062 -14.56937157 26.59823996 -7.42211914 28.76977539 C-1.1122354 30.74071553 4.40056836 33.12724311 8 39 C9.7506054 44.25181621 10.0572037 50.06057849 8.1640625 55.32421875 C4.48742357 61.80151887 -1.0966309 65.39736311 -8.1875 67.375 C-19.37522893 69.38454026 -28.94643508 66.88341901 -38.3125 60.875 C-42.38581914 56.5174958 -45 51.03809187 -45 45 C-40.71 45 -36.42 45 -32 45 C-31.12109375 46.98567708 -30.2421875 48.97135417 -29.36328125 50.95703125 C-27.5629579 53.65493701 -25.946841 54.65370631 -23 56 C-19.82103642 56.47195283 -19.82103642 56.47195283 -16.5 56.375 C-15.3965625 56.38273437 -14.293125 56.39046875 -13.15625 56.3984375 C-9.68538585 55.96028386 -7.79093391 55.07297627 -5 53 C-3.45836825 49.9167365 -3.70252465 47.39121901 -4 44 C-6.81334771 41.31460606 -9.75654836 40.23874979 -13.4296875 39.09765625 C-14.99396484 38.59782227 -14.99396484 38.59782227 -16.58984375 38.08789062 C-18.77171837 37.40686555 -20.95400771 36.72716766 -23.13671875 36.04882812 C-31.17155982 33.47787713 -37.03980509 31.16472598 -42 24 C-43.78793044 18.63620867 -43.69055197 13.11227662 -41.9375 7.75 C-32.66092644 -5.41674956 -13.68540597 -8.77651035 0 0 Z " fill="#0A2357" transform="translate(2714,404)"/>
<path d="M0 0 C6.30583162 5.10584128 8.01119211 10.08953687 9 18 C4.71 18 0.42 18 -4 18 C-4.4125 16.906875 -4.825 15.81375 -5.25 14.6875 C-6.62450551 11.4781593 -7.88600289 9.75162337 -11 8 C-16.12789443 6.29070186 -20.41244889 6.38261901 -25.375 8.3125 C-28.21698375 9.89220247 -28.21698375 9.89220247 -30 13 C-30.48108188 16.47910224 -30.48108188 16.47910224 -29 20 C-23.12772788 24.77208062 -14.56937157 26.59823996 -7.42211914 28.76977539 C-1.1122354 30.74071553 4.40056836 33.12724311 8 39 C9.7506054 44.25181621 10.0572037 50.06057849 8.1640625 55.32421875 C4.48742357 61.80151887 -1.0966309 65.39736311 -8.1875 67.375 C-19.37522893 69.38454026 -28.94643508 66.88341901 -38.3125 60.875 C-42.38581914 56.5174958 -45 51.03809187 -45 45 C-40.71 45 -36.42 45 -32 45 C-31.12109375 46.98567708 -30.2421875 48.97135417 -29.36328125 50.95703125 C-27.5629579 53.65493701 -25.946841 54.65370631 -23 56 C-19.82103642 56.47195283 -19.82103642 56.47195283 -16.5 56.375 C-15.3965625 56.38273437 -14.293125 56.39046875 -13.15625 56.3984375 C-9.68538585 55.96028386 -7.79093391 55.07297627 -5 53 C-3.45836825 49.9167365 -3.70252465 47.39121901 -4 44 C-6.81334771 41.31460606 -9.75654836 40.23874979 -13.4296875 39.09765625 C-14.99396484 38.59782227 -14.99396484 38.59782227 -16.58984375 38.08789062 C-18.77171837 37.40686555 -20.95400771 36.72716766 -23.13671875 36.04882812 C-31.17155982 33.47787713 -37.03980509 31.16472598 -42 24 C-43.78793044 18.63620867 -43.69055197 13.11227662 -41.9375 7.75 C-32.66092644 -5.41674956 -13.68540597 -8.77651035 0 0 Z " fill="#0A2357" transform="translate(2573,404)"/>
<path d="M0 0 C6.30583162 5.10584128 8.01119211 10.08953687 9 18 C4.71 18 0.42 18 -4 18 C-4.4125 16.906875 -4.825 15.81375 -5.25 14.6875 C-6.62450551 11.4781593 -7.88600289 9.75162337 -11 8 C-16.12789443 6.29070186 -20.41244889 6.38261901 -25.375 8.3125 C-28.21698375 9.89220247 -28.21698375 9.89220247 -30 13 C-30.48108188 16.47910224 -30.48108188 16.47910224 -29 20 C-23.12772788 24.77208062 -14.56937157 26.59823996 -7.42211914 28.76977539 C-1.1122354 30.74071553 4.40056836 33.12724311 8 39 C9.7506054 44.25181621 10.0572037 50.06057849 8.1640625 55.32421875 C4.48742357 61.80151887 -1.0966309 65.39736311 -8.1875 67.375 C-19.37522893 69.38454026 -28.94643508 66.88341901 -38.3125 60.875 C-42.38581914 56.5174958 -45 51.03809187 -45 45 C-40.71 45 -36.42 45 -32 45 C-31.12109375 46.98567708 -30.2421875 48.97135417 -29.36328125 50.95703125 C-27.5629579 53.65493701 -25.946841 54.65370631 -23 56 C-19.82103642 56.47195283 -19.82103642 56.47195283 -16.5 56.375 C-15.3965625 56.38273437 -14.293125 56.39046875 -13.15625 56.3984375 C-9.68538585 55.96028386 -7.79093391 55.07297627 -5 53 C-3.45836825 49.9167365 -3.70252465 47.39121901 -4 44 C-6.81334771 41.31460606 -9.75654836 40.23874979 -13.4296875 39.09765625 C-14.99396484 38.59782227 -14.99396484 38.59782227 -16.58984375 38.08789062 C-18.77171837 37.40686555 -20.95400771 36.72716766 -23.13671875 36.04882812 C-31.17155982 33.47787713 -37.03980509 31.16472598 -42 24 C-43.78793044 18.63620867 -43.69055197 13.11227662 -41.9375 7.75 C-32.66092644 -5.41674956 -13.68540597 -8.77651035 0 0 Z " fill="#0A2357" transform="translate(2386,404)"/>
<path d="M0 0 C6.30583162 5.10584128 8.01119211 10.08953687 9 18 C4.71 18 0.42 18 -4 18 C-4.4125 16.906875 -4.825 15.81375 -5.25 14.6875 C-6.62450551 11.4781593 -7.88600289 9.75162337 -11 8 C-16.12789443 6.29070186 -20.41244889 6.38261901 -25.375 8.3125 C-28.21698375 9.89220247 -28.21698375 9.89220247 -30 13 C-30.48108188 16.47910224 -30.48108188 16.47910224 -29 20 C-23.12772788 24.77208062 -14.56937157 26.59823996 -7.42211914 28.76977539 C-1.1122354 30.74071553 4.40056836 33.12724311 8 39 C9.7506054 44.25181621 10.0572037 50.06057849 8.1640625 55.32421875 C4.48742357 61.80151887 -1.0966309 65.39736311 -8.1875 67.375 C-19.37522893 69.38454026 -28.94643508 66.88341901 -38.3125 60.875 C-42.38581914 56.5174958 -45 51.03809187 -45 45 C-40.71 45 -36.42 45 -32 45 C-31.12109375 46.98567708 -30.2421875 48.97135417 -29.36328125 50.95703125 C-27.5629579 53.65493701 -25.946841 54.65370631 -23 56 C-19.82103642 56.47195283 -19.82103642 56.47195283 -16.5 56.375 C-15.3965625 56.38273437 -14.293125 56.39046875 -13.15625 56.3984375 C-9.68538585 55.96028386 -7.79093391 55.07297627 -5 53 C-3.45836825 49.9167365 -3.70252465 47.39121901 -4 44 C-6.81334771 41.31460606 -9.75654836 40.23874979 -13.4296875 39.09765625 C-14.99396484 38.59782227 -14.99396484 38.59782227 -16.58984375 38.08789062 C-18.77171837 37.40686555 -20.95400771 36.72716766 -23.13671875 36.04882812 C-31.17155982 33.47787713 -37.03980509 31.16472598 -42 24 C-43.78793044 18.63620867 -43.69055197 13.11227662 -41.9375 7.75 C-32.66092644 -5.41674956 -13.68540597 -8.77651035 0 0 Z " fill="#0A2357" transform="translate(1283,404)"/>
<path d="M0 0 C7.6862368 5.13716334 11.20881706 11.0440853 13 20 C8.38 20 3.76 20 -1 20 C-1.99 18.02 -2.98 16.04 -4 14 C-7.3675248 10.30800016 -10.82532524 8.20824519 -15.85546875 7.7265625 C-22.07004927 7.53713801 -27.25958977 7.38977012 -32.34375 11.2890625 C-38.09038414 17.22544399 -39.47693052 23.53643159 -39.5625 31.5625 C-39.43791279 38.79802028 -38.60003695 45.02516469 -33.57421875 50.57421875 C-28.31616905 55.31597417 -23.45756129 56.47045592 -16.56640625 56.31640625 C-11.12416919 55.64544552 -7.30047705 53.36716818 -3.5625 49.4375 C-1.86816715 47.01407924 -1.86816715 47.01407924 -1 44 C3.62 44 8.24 44 13 44 C10.89291078 52.29666381 7.15213543 58.40973239 0.015625 63.3828125 C-10.23171832 68.91637789 -21.07607521 69.01066739 -32.1015625 66.0390625 C-36.49244118 64.46497392 -39.63441802 62.18447442 -43 59 C-43.55429688 58.49726563 -44.10859375 57.99453125 -44.6796875 57.4765625 C-51.63315472 50.38471783 -53.3811496 41.04421991 -53.5 31.4375 C-53.37016473 20.95214288 -50.52085648 11.60405179 -43 4 C-31.08836258 -5.75971752 -13.61493712 -7.504819 0 0 Z " fill="#0A2357" transform="translate(1359,404)"/>
<path d="M0 0 C3.96 0 7.92 0 12 0 C12 5.94 12 11.88 12 18 C17.94 18 23.88 18 30 18 C30 21.3 30 24.6 30 28 C24.06 28 18.12 28 12 28 C12.11816685 34.06906451 12.24240964 40.13796248 12.37231445 46.20678711 C12.41565803 48.27185676 12.45733352 50.33696212 12.49731445 52.40209961 C12.55503083 55.36843635 12.61872151 58.33459345 12.68359375 61.30078125 C12.70030624 62.2258699 12.71701874 63.15095856 12.73423767 64.1040802 C12.75418289 64.96474594 12.77412811 65.82541168 12.79467773 66.7121582 C12.81022202 67.46938675 12.8257663 68.2266153 12.84178162 69.00679016 C12.93632323 71.20924815 12.93632323 71.20924815 14 74 C16.9615696 75.4807848 19.83506295 75.35314037 23.125 75.5625 C25.04699219 75.68818359 25.04699219 75.68818359 27.0078125 75.81640625 C27.99523438 75.87699219 28.98265625 75.93757813 30 76 C30 79.63 30 83.26 30 87 C11.28564524 87.57419043 11.28564524 87.57419043 5 84 C1.07945148 79.9789246 -0.12804635 76.78565942 -0.11352539 71.25317383 C-0.11344986 70.29240433 -0.11337433 69.33163483 -0.11329651 68.3417511 C-0.10813522 67.30729355 -0.10297394 66.272836 -0.09765625 65.20703125 C-0.0962413 64.14586594 -0.09482635 63.08470062 -0.09336853 61.99137878 C-0.08776606 58.59839065 -0.07521314 55.20546823 -0.0625 51.8125 C-0.05748532 49.51367283 -0.05292236 47.21484462 -0.04882812 44.91601562 C-0.03779583 39.27731838 -0.02052952 33.63867034 0 28 C-2.97 28 -5.94 28 -9 28 C-9 24.7 -9 21.4 -9 18 C-6.03 18 -3.06 18 0 18 C0 12.06 0 6.12 0 0 Z " fill="#0A2357" transform="translate(2744,383)"/>
<path d="M0 0 C3.96 0 7.92 0 12 0 C12 5.94 12 11.88 12 18 C17.94 18 23.88 18 30 18 C30 21.3 30 24.6 30 28 C24.06 28 18.12 28 12 28 C12.11816685 34.06906451 12.24240964 40.13796248 12.37231445 46.20678711 C12.41565803 48.27185676 12.45733352 50.33696212 12.49731445 52.40209961 C12.55503083 55.36843635 12.61872151 58.33459345 12.68359375 61.30078125 C12.70030624 62.2258699 12.71701874 63.15095856 12.73423767 64.1040802 C12.75418289 64.96474594 12.77412811 65.82541168 12.79467773 66.7121582 C12.81022202 67.46938675 12.8257663 68.2266153 12.84178162 69.00679016 C12.93632323 71.20924815 12.93632323 71.20924815 14 74 C16.9615696 75.4807848 19.83506295 75.35314037 23.125 75.5625 C25.04699219 75.68818359 25.04699219 75.68818359 27.0078125 75.81640625 C27.99523438 75.87699219 28.98265625 75.93757813 30 76 C30 79.63 30 83.26 30 87 C11.28564524 87.57419043 11.28564524 87.57419043 5 84 C1.07945148 79.9789246 -0.12804635 76.78565942 -0.11352539 71.25317383 C-0.11344986 70.29240433 -0.11337433 69.33163483 -0.11329651 68.3417511 C-0.10813522 67.30729355 -0.10297394 66.272836 -0.09765625 65.20703125 C-0.0962413 64.14586594 -0.09482635 63.08470062 -0.09336853 61.99137878 C-0.08776606 58.59839065 -0.07521314 55.20546823 -0.0625 51.8125 C-0.05748532 49.51367283 -0.05292236 47.21484462 -0.04882812 44.91601562 C-0.03779583 39.27731838 -0.02052952 33.63867034 0 28 C-2.97 28 -5.94 28 -9 28 C-9 24.7 -9 21.4 -9 18 C-6.03 18 -3.06 18 0 18 C0 12.06 0 6.12 0 0 Z " fill="#0A2357" transform="translate(2001,383)"/>
<path d="M0 0 C4.29 0 8.58 0 13 0 C13 31.02 13 62.04 13 94 C8.71 94 4.42 94 0 94 C0 62.98 0 31.96 0 0 Z " fill="#0A2357" transform="translate(1683,377)"/>
<path d="M0 0 C4.29 0 8.58 0 13 0 C13 31.02 13 62.04 13 94 C8.71 94 4.42 94 0 94 C0 62.98 0 31.96 0 0 Z " fill="#0A2357" transform="translate(1475,377)"/>
<path d="M0 0 C4.29 0 8.58 0 13 0 C13 31.02 13 62.04 13 94 C8.71 94 4.42 94 0 94 C0 62.98 0 31.96 0 0 Z " fill="#0A2357" transform="translate(1082,377)"/>
<path d="M0 0 C0 4.29 0 8.58 0 13 C-2.784375 13.37125 -2.784375 13.37125 -5.625 13.75 C-10.63349205 14.59949688 -14.17441684 15.46869247 -18 19 C-21.54517658 24.41524788 -21.47072219 29.39156729 -21.51171875 35.6484375 C-21.52966995 36.66096588 -21.54762115 37.67349426 -21.56611633 38.71670532 C-21.62009958 41.93609511 -21.65407707 45.15533763 -21.6875 48.375 C-21.7206836 50.56382252 -21.75517422 52.75262564 -21.79101562 54.94140625 C-21.87581943 60.2941644 -21.94268811 65.64687976 -22 71 C-26.29 71 -30.58 71 -35 71 C-35 48.23 -35 25.46 -35 2 C-30.71 2 -26.42 2 -22 2 C-21.67 4.31 -21.34 6.62 -21 9 C-20.59910156 8.60167969 -20.19820312 8.20335937 -19.78515625 7.79296875 C-13.7800488 2.19637201 -8.21668379 0 0 0 Z " fill="#0A2357" transform="translate(2297,399)"/>
<path d="M0 0 C0 4.29 0 8.58 0 13 C-2.784375 13.37125 -2.784375 13.37125 -5.625 13.75 C-10.63349205 14.59949688 -14.17441684 15.46869247 -18 19 C-21.54517658 24.41524788 -21.47072219 29.39156729 -21.51171875 35.6484375 C-21.52966995 36.66096588 -21.54762115 37.67349426 -21.56611633 38.71670532 C-21.62009958 41.93609511 -21.65407707 45.15533763 -21.6875 48.375 C-21.7206836 50.56382252 -21.75517422 52.75262564 -21.79101562 54.94140625 C-21.87581943 60.2941644 -21.94268811 65.64687976 -22 71 C-26.29 71 -30.58 71 -35 71 C-35 48.23 -35 25.46 -35 2 C-30.71 2 -26.42 2 -22 2 C-21.67 4.31 -21.34 6.62 -21 9 C-20.59910156 8.60167969 -20.19820312 8.20335937 -19.78515625 7.79296875 C-13.7800488 2.19637201 -8.21668379 0 0 0 Z " fill="#0A2357" transform="translate(2161,399)"/>
<path d="M0 0 C4.29 0 8.58 0 13 0 C13 23.1 13 46.2 13 70 C8.71 70 4.42 70 0 70 C0 46.9 0 23.8 0 0 Z " fill="#0A2357" transform="translate(2311,401)"/>
<path d="M0 0 C4.29 0 8.58 0 13 0 C13 23.1 13 46.2 13 70 C8.71 70 4.42 70 0 70 C0 46.9 0 23.8 0 0 Z " fill="#0A2357" transform="translate(1049,401)"/>
<path d="M0 0 C2.33030405 1.60710624 2.89531369 2.69399385 3.8125 5.375 C4.04015388 8.56215425 3.54198246 10.20974602 2 13 C0.3125 14.875 0.3125 14.875 -2 16 C-5.40088303 15.88067077 -7.93097259 15.64141645 -10.875 13.875 C-12.67167343 10.88054428 -12.94016186 8.47061229 -13 5 C-9.51516388 -0.72508791 -6.37013398 -1.5925335 0 0 Z " fill="#0A2357" transform="translate(2322,375)"/>
<path d="M0 0 C2.33030405 1.60710624 2.89531369 2.69399385 3.8125 5.375 C4.04015388 8.56215425 3.54198246 10.20974602 2 13 C0.3125 14.875 0.3125 14.875 -2 16 C-5.40088303 15.88067077 -7.93097259 15.64141645 -10.875 13.875 C-12.67167343 10.88054428 -12.94016186 8.47061229 -13 5 C-9.51516388 -0.72508791 -6.37013398 -1.5925335 0 0 Z " fill="#0A2357" transform="translate(1060,375)"/>
<path d="M0 0 C3.87511727 0.54984772 5.59576506 2.27555331 8.25 5.0625 C8.95640625 5.79597656 9.6628125 6.52945312 10.390625 7.28515625 C10.92171875 7.85105469 11.4528125 8.41695313 12 9 C11.67 9.66 11.34 10.32 11 11 C7.33333333 7.33333333 3.66666667 3.66666667 0 0 Z " fill="#1B2D5F" transform="translate(267,398)"/>
</svg>
